<svg id="Capa_1" enable-background="new 0 0 497.419 497.419" height="512" viewBox="0 0 497.419 497.419" width="512" xmlns="http://www.w3.org/2000/svg"><g id="_x3C_Group_x3E__3_"><path d="m391.817 479.748-332.582 2.903c-27.614 0-50-22.386-50-50l.822-369.669c0-16.325-1.059-43.806 11.044-52.931 8.369-6.31 18.784-10.051 30.073-10.051h337.631c27.614 0 50 22.386 50 50v241.639l-31.216 16.791 31.216 128.989c0 27.614-19.374 42.329-46.988 42.329z" fill="#e9edf1"/><path d="m438.807 291.639c-40.232-15.416-89.148-5.404-120.02 25.04-22.88 21.99-35.48 51.56-35.48 83.27 0 23.321 6.952 45.054 18.895 63.23 1.306 1.988-.134 4.63-2.513 4.63h-248.672c-16.52 0-29.91-13.18-29.91-29.43v-428.32c-12.11 9.11-19.93 23.61-19.93 39.94v387.42c0 27.18 21.69 49.3 48.71 49.98.38.02.75.02 1.13.02h337.94c18.253.021 34.872-10.237 43.36-25.36-.24.126-.49.235-.733.357 4.628-6.556 7.223-14.913 7.223-24.997z" fill="#dce6eb"/><g><g><path d="m122.87 321.797-59.617.766c-8.284 0-15-6.716-15-15l.191-61.213c0-8.284 2.718-20.004 11.003-20.004h69.364c8.284 0 15 6.716 15 15v69.364c0 8.284-12.657 11.087-20.941 11.087z" fill="#6d7c84"/><path d="m59.351 305.837v-79.491c-8.231 0-14.905 6.673-14.905 14.905v69.555c0 8.232 6.673 14.905 14.905 14.905h69.555c8.232 0 14.905-6.673 14.905-14.905h-79.491c-2.744-.001-4.969-2.225-4.969-4.969z" fill="#5f6c75"/></g><g><path d="m114.001 283.48h-39.745c-4.116 0-7.452-3.337-7.452-7.452 0-4.116 3.336-7.452 7.452-7.452h39.746c4.116 0 7.452 3.337 7.452 7.452s-3.336 7.452-7.453 7.452z" fill="#f7f9fa"/></g><g><path d="m94.129 303.353c-4.116 0-7.452-3.337-7.452-7.452v-39.746c0-4.116 3.336-7.452 7.452-7.452s7.452 3.337 7.452 7.452v39.745c0 4.116-3.336 7.453-7.452 7.453z" fill="#f7f9fa"/></g></g><g><g><path d="m252.338 452.757-59.617.766c-8.284 0-15-6.716-15-15l.191-61.213c0-8.284 2.718-20.004 11.003-20.004h69.364c8.284 0 15 6.716 15 15v69.364c0 8.284-12.657 11.087-20.941 11.087z" fill="#6d7c84"/><path d="m188.82 436.797v-79.491c-8.231 0-14.905 6.673-14.905 14.905v69.555c0 8.232 6.673 14.905 14.905 14.905h69.555c8.232 0 14.905-6.673 14.905-14.905h-79.491c-2.745-.001-4.969-2.225-4.969-4.969z" fill="#5f6c75"/></g><g><path d="m202.73 435.287c-1.907 0-3.814-.728-5.27-2.183-2.91-2.91-2.91-7.629 0-10.539l41.733-41.733c2.911-2.91 7.629-2.91 10.54 0 2.91 2.91 2.91 7.629 0 10.539l-41.733 41.733c-1.455 1.456-3.363 2.183-5.27 2.183z" fill="#f7f9fa"/></g><g fill="#f7f9fa"><circle cx="244.679" cy="428.043" r="7.452"/><circle cx="202.524" cy="385.887" r="7.452"/></g></g><path d="m373.888 161.313-307.304 2.552c-11.042 0-19.993-8.951-19.993-19.993l-.68-77.762c0-9.501 2.076-24.841 10.961-26.875 1.441-.33 2.94-.504 4.481-.504h319.895c11.042 0 19.993 8.951 19.993 19.993v89.971c0 1.541-.174 3.04-.504 4.481-2.034 8.884-17.347 8.137-26.849 8.137z" fill="#b3e59f"/><path d="m396.243 153.693h-329.892c-5.521 0-9.997-4.476-9.997-9.997v-99.967c0-1.541.191-3.036.521-4.477-8.883 2.035-15.516 9.971-15.516 19.472v89.971c0 11.042 8.951 19.993 19.993 19.993h319.895c9.501 0 17.437-6.633 19.472-15.516-1.441.33-2.935.521-4.476.521z" fill="#95d6a4"/><path d="m253.789 321.601h-69.977c-8.282 0-6.455 2.996-6.455-5.285v-69.977c0-8.282.673-17.67 8.955-17.67h69.977c8.282 0 14.995 6.714 14.995 14.995v69.977c0 8.281-9.213 7.96-17.495 7.96z" fill="#6d7c84"/><path d="m370.549 406.448-48.282.91c-8.282 0-14.995-6.714-14.995-14.995l-2.297-142.228c0-8.282 6.714-14.995 14.995-14.995l1.297-6.296h64.979c8.282 0 14.995 6.714 14.995 14.995v40.875l-15.697 106.739c0 8.282-6.713 14.995-14.995 14.995z" fill="#b3e59f"/><g><path d="m201.306 306.143c-1.918 0-3.838-.732-5.302-2.196-2.928-2.928-2.928-7.675 0-10.603l39.987-39.987c2.929-2.928 7.675-2.928 10.604 0 2.928 2.928 2.928 7.675 0 10.603l-39.987 39.987c-1.464 1.464-3.383 2.196-5.302 2.196z" fill="#f7f9fa"/></g><g><path d="m241.293 306.143c-1.918 0-3.838-.732-5.302-2.196l-39.987-39.987c-2.928-2.928-2.928-7.675 0-10.603 2.929-2.928 7.675-2.928 10.604 0l39.987 39.987c2.928 2.928 2.928 7.675 0 10.603-1.464 1.464-3.384 2.196-5.302 2.196z" fill="#f7f9fa"/></g><path d="m124.778 454.068h-69.977c-8.282 0-9.401-2.013-9.401-10.294v-69.977c0-8.282 2.672-14.995 10.954-14.995h69.977c8.282 0 14.995 6.714 14.995 14.995v69.977c0 8.281-8.266 10.294-16.548 10.294z" fill="#6d7c84"/><path d="m186.311 308.642v-79.974c-8.281 0-14.995 6.713-14.995 14.995v69.977c0 8.282 6.714 14.995 14.995 14.995h69.977c8.282 0 14.995-6.714 14.995-14.995h-79.973c-2.761.001-4.999-2.237-4.999-4.998z" fill="#5f6c75"/><path d="m56.354 438.775v-79.974c-8.281 0-14.995 6.714-14.995 14.995v69.977c0 8.282 6.714 14.995 14.995 14.995h69.977c8.282 0 14.995-6.714 14.995-14.995h-79.974c-2.76 0-4.998-2.237-4.998-4.998z" fill="#5f6c75"/><g><path d="m111.336 416.282h-39.987c-4.141 0-7.498-3.357-7.498-7.498s3.356-7.498 7.498-7.498h39.987c4.141 0 7.498 3.357 7.498 7.498-.001 4.142-3.357 7.498-7.498 7.498z" fill="#f7f9fa"/></g><g><path d="m116.334 206.175h-49.984c-4.141 0-7.498-3.357-7.498-7.498s3.356-7.498 7.498-7.498h49.984c4.141 0 7.498 3.357 7.498 7.498s-3.357 7.498-7.498 7.498z" fill="#6d7c84"/></g><g><path d="m246.291 206.175h-49.984c-4.141 0-7.498-3.357-7.498-7.498s3.356-7.498 7.498-7.498h49.984c4.141 0 7.498 3.357 7.498 7.498s-3.356 7.498-7.498 7.498z" fill="#6d7c84"/></g><g><path d="m376.249 206.175h-49.984c-4.141 0-7.498-3.357-7.498-7.498s3.356-7.498 7.498-7.498h49.984c4.141 0 7.498 3.357 7.498 7.498s-3.357 7.498-7.498 7.498z" fill="#6d7c84"/></g><g fill="#95d6a4"><path d="m354.974 96.338c-1.837-.65-3.493-1.143-4.953-1.578-3.946-1.175-5.377-1.661-6.682-3.218-.307-.366-.674-1.539-.351-3.13.169-.83.779-2.875 2.808-3.912 2.923-1.493 6.364 1.236 6.747 1.553 3.191 2.636 7.917 2.188 10.555-1.004s2.189-7.918-1.004-10.556c-2.084-1.722-4.671-3.256-7.552-4.258v-1.515c0-4.141-3.356-7.498-7.498-7.498-4.141 0-7.498 3.357-7.498 7.498v2.165c-.194.092-.388.166-.581.265-5.516 2.822-9.406 8.028-10.673 14.282-1.176 5.8.153 11.686 3.556 15.744 4.265 5.087 9.16 6.545 13.893 7.954 1.354.403 2.754.821 4.237 1.344 3.647 1.289 4.018 3.903 3.688 5.868-.369 2.196-2.26 5.92-7.006 5.952-4.959.032-6.114-.15-9.723-2.512-3.466-2.267-8.113-1.296-10.379 2.17-2.267 3.465-1.295 8.112 2.169 10.379 4.072 2.664 7.273 3.945 10.819 4.525v1.841c0 4.141 3.356 7.498 7.498 7.498 4.141 0 7.498-3.357 7.498-7.498v-2.867c7.152-2.732 12.579-9.066 13.912-17 1.682-10.009-3.735-19.047-13.48-22.492z"/><path d="m380.581 285.561c-21.624 3.552-39.782 10.618-54.488 22.005-1.969 1.525-4.826.122-4.826-2.369v-76.354h-4.999c-8.281 0-14.995 6.713-14.995 14.995v92.516 57.435c0 8.281 6.714 14.995 14.995 14.995h69.977c8.282 0 14.995-6.714 14.995-14.995v-4.998-104.077c-5.036-.803-15.276-.037-20.659.847z"/><path d="m308.803 146.195h-217.461c-4.141 0-7.498-3.357-7.498-7.498s3.356-7.498 7.498-7.498h217.461c4.141 0 7.498 3.357 7.498 7.498s-3.357 7.498-7.498 7.498z"/></g><path d="m496.242 399.951c0-53.83-43.638-97.468-97.468-97.468-22.936 0-44.021 7.922-60.669 21.179-1.648 1.312-2.678 3.536-4.236 4.95-19.65 17.832-30.563 42.715-30.563 71.339 0 53.83 41.639 95.469 95.469 95.469 24.708 0 47.269-7.194 64.448-22.347 20.247-17.861 33.019-44 33.019-73.122z" fill="#ffd064"/><path d="m411.77 485.423c-53.83 0-97.468-43.638-97.468-97.468 0-25.132 9.514-48.04 25.134-65.325-23.183 17.818-38.13 45.822-38.13 77.322 0 53.83 43.638 97.468 97.468 97.468 28.698 0 54.497-12.405 72.334-32.143-16.436 12.631-37.008 20.146-59.338 20.146z" fill="#ffc250"/><path d="m466.252 399.951c0-37.267-30.211-67.478-67.478-67.478-15.122 0-29.082 4.974-40.333 13.376-16.477 12.303-25.145 31.957-25.145 54.102 0 37.267 28.212 65.479 65.479 65.479 17.887 0 34.148-4.96 46.224-16.319 13.083-12.309 21.253-29.78 21.253-49.16z" fill="#ffc250"/><path d="m412.769 455.432c-37.267 0-67.478-30.211-67.478-67.478 0-17.174 6.427-32.84 16.993-44.751-18.636 12.009-30.989 32.929-30.989 56.748 0 37.267 30.211 67.478 67.478 67.478 20.093 0 38.123-8.792 50.485-22.726-10.522 6.779-23.04 10.729-36.489 10.729z" fill="#ebb044"/><path d="m406.956 392.48c-1.887-.667-3.589-1.173-5.09-1.62-4.113-1.224-5.606-1.731-6.99-3.381-.342-.407-.755-1.689-.408-3.398.18-.885.832-3.065 3.007-4.177 3.14-1.605 6.791 1.289 7.197 1.624 3.19 2.637 7.917 2.186 10.555-1.007 2.637-3.193 2.186-7.918-1.007-10.555-2.162-1.786-4.857-3.371-7.857-4.39v-1.716c0-4.141-3.356-7.498-7.498-7.498-4.141 0-7.498 3.357-7.498 7.498v2.365c-.239.111-.479.206-.719.328-5.621 2.874-9.586 8.177-10.877 14.549-1.196 5.904.156 11.891 3.619 16.017 4.349 5.182 9.356 6.672 14.198 8.113 1.398.415 2.842.845 4.375 1.386 3.898 1.377 4.296 4.172 3.943 6.274-.507 3.018-3.05 6.279-7.434 6.308-5.157.037-6.368-.157-10.142-2.623-3.467-2.265-8.113-1.292-10.377 2.175-2.265 3.466-1.292 8.113 2.175 10.377 4.23 2.764 7.543 4.07 11.239 4.649v2.081c0 4.141 3.356 7.498 7.498 7.498 4.141 0 7.498-3.357 7.498-7.498v-3.083c8.007-2.975 13.127-10.225 14.332-17.401 1.711-10.188-3.81-19.389-13.739-22.895z" fill="#ffd064"/></g></svg>