<svg id="Layer_1" height="512" viewBox="0 0 512 512" width="512" xmlns="http://www.w3.org/2000/svg" data-name="Layer 1"><path d="m497.96 165.45a29.113 29.113 0 0 0 -29.115-28.65l-425.845 238.4v.42c0 15.89 13.29 28.38 29.18 28.38h399.75a28.965 28.965 0 0 0 29.07-29.355z" fill="#5fcda4"/><path d="m468.9 136.8 3.02 208.9a29.067 29.067 0 0 1 -29.06 29.5h-399.75a29.067 29.067 0 0 1 -29.07-28.65l-3.04-209.33a29.079 29.079 0 0 1 29.07-29.49h399.75a29.073 29.073 0 0 1 29.07 28.65z" fill="#4ca987"/><path d="m443.2 167.52v148.86l-31.47 29.56h-340.53l-30.5-29.56v-148.86l31.47-30.53h340.11z" fill="#5fcda4"/><circle cx="241.95" cy="241.46" fill="#4ca987" r="85.87"/><circle cx="390.62" cy="241.46" fill="#4ca987" r="26.5"/><path d="m186.08 241.46a85.875 85.875 0 0 1 70.869-84.537 85.87 85.87 0 1 0 0 169.074 85.867 85.867 0 0 1 -70.869-84.537z" fill="#40896b"/><path d="m71 167.52 31.17-30.52h-30l-31.17 30.52v148.86l30.2 29.62h30l-30.2-29.62z" fill="#79e2b7"/><circle cx="93.28" cy="241.46" fill="#4ca987" r="25.5"/><path d="m72.577 170.65h-2.985a6 6 0 0 1 0-12h2.985a6 6 0 0 1 0 12z" fill="#f4f8fc"/><path d="m168.555 170.65h-76.668a6 6 0 0 1 0-12h76.668a6 6 0 0 1 0 12z" fill="#f4f8fc"/><path d="m241.948 209.169a12.947 12.947 0 0 1 12.932 12.931 6.013 6.013 0 0 0 12.026 0 24.8 24.8 0 0 0 -18.906-24.2v-5.136a6 6 0 0 0 -12 0v5.136a24.927 24.927 0 0 0 5.961 49.129 12.929 12.929 0 0 1 .126 25.857c-.046 0-.092-.007-.137-.007s-.091.006-.136.007a12.943 12.943 0 0 1 -12.8-12.925 5.987 5.987 0 1 0 -11.974 0 24.84 24.84 0 0 0 18.96 24.201v6a6 6 0 1 0 12 0v-6a24.934 24.934 0 0 0 -6.039-49.129 12.932 12.932 0 0 1 -.013-25.864z" fill="#356651"/></svg>