<svg id="Capa_1" enable-background="new 0 0 512 512" height="512" viewBox="0 0 512 512" width="512" xmlns="http://www.w3.org/2000/svg"><g><g><g><g><g><g><g><circle cx="256" cy="256" fill="#d79b8c" r="256"/></g></g></g></g></g></g><path d="m304.69 108.675-196.904 195.25 202.342 202.342c97.906-21.075 175.002-98.145 196.116-196.037z" fill="#a65d4e"/><g><g><g><g><g><g><ellipse cx="199.028" cy="199.028" fill="#ffce00" rx="139.028" ry="139.028" transform="matrix(.707 -.707 .707 .707 -82.44 199.028)"/></g></g></g></g></g></g><g><g><g><g><g><g><path d="m199.028 60c-.046 0-.091.002 0 .061v278.052c-.091-.06-.046-.058 0-.058 76.783 0 139.028-62.245 139.028-139.028-.001-76.782-62.245-139.027-139.028-139.027z" fill="#fdba12"/></g></g></g></g></g></g><g><path d="m199.028 102.332c-53.403 0-96.695 43.292-96.695 96.695s43.292 96.695 96.695 96.695 96.695-43.292 96.695-96.695-43.292-96.695-96.695-96.695zm0 147.613-50.916-50.917 50.916-50.917 50.917 50.917z" fill="#fdba12"/></g><g fill="#ffa300"><path d="m199.028 102.333c.045-.001-.046 0 0 0z"/><path d="m199.028 102.333v45.778l50.917 50.917-50.916 50.917v45.778c53.403 0 96.695-43.292 96.695-96.695-.001-53.403-43.293-96.695-96.696-96.695z"/></g><g><g><g><g><g><g><path d="m334.138 199.028c-65.093 0-117.861 52.768-117.861 117.861s52.768 117.862 117.861 117.862c.636 0 1.269-.014 1.903-.024v-235.675c-.634-.01-1.267-.024-1.903-.024z" fill="#dce1eb"/></g></g></g></g></g></g><g><g><g><g><g><g><path d="m334.138 199.028c-.103 0-.204.004 0 .088v235.715c-.204-.084-.103-.081 0-.081 65.093 0 117.862-52.768 117.862-117.862 0-65.092-52.768-117.86-117.862-117.86z" fill="#bec3d2"/></g></g></g></g></g></g><g><path d="m334.139 360.054-43.165-43.165 43.164-43.166 1.903 1.903v-40.663c-.635-.014-1.264-.048-1.903-.048-45.273 0-81.974 36.701-81.974 81.974s36.701 81.974 81.974 81.974c.638 0 1.268-.033 1.903-.048v-40.663z" fill="#bec3d2"/></g><g fill="#9196aa"><path d="m334.138 398.863c-.103 0 .103 0 0 0z"/><path d="m334.138 234.916c.103-.001-.103 0 0 0z"/><path d="m416.112 316.889c0-45.273-36.701-81.974-81.974-81.974v38.809l43.165 43.165-43.165 43.165v38.809c45.273 0 81.974-36.701 81.974-81.974z"/></g></g></svg>