<svg id="Capa_1" enable-background="new 0 0 512 512" height="512" viewBox="0 0 512 512" width="512" xmlns="http://www.w3.org/2000/svg"><g><g><path d="m25 81.66c-13.79 0-25 11.21-25 25v298.68c0 13.79 11.21 25 25 25h231l27-174.34-27-174.34z" fill="#00dd80"/></g><g><path d="m487 81.66h-231v348.68h231c13.79 0 25-11.21 25-25v-298.68c0-13.79-11.21-25-25-25z" fill="#00aa95"/></g><path d="m256 141.65 16 115.35-16 113.35h-141c-8.28 0-15-6.72-15-15 0-13.79-11.21-25-25-25-8.28 0-15-6.72-15-15v-118.7c0-8.28 6.72-15 15-15 13.79 0 25-11.21 25-25 0-8.28 6.72-15 15-15z" fill="#00aa95"/><path d="m452 196.65v118.7c0 8.28-6.72 15-15 15-13.79 0-25 11.21-25 25 0 8.28-6.72 15-15 15h-141v-228.7h141c8.28 0 15 6.72 15 15 0 13.79 11.21 25 25 25 8.28 0 15 6.72 15 15z" fill="#007579"/><g><path d="m256 204.5 9 51.5-9 51.5c-28.4 0-51.5-23.1-51.5-51.5s23.1-51.5 51.5-51.5z" fill="#00dd80"/></g><g><path d="m307.5 256c0 28.4-23.1 51.5-51.5 51.5v-103c28.4 0 51.5 23.1 51.5 51.5z" fill="#00aa95"/></g><g><path d="m156.833 271h-14.666c-8.284 0-15-6.716-15-15s6.716-15 15-15h14.666c8.284 0 15 6.716 15 15s-6.716 15-15 15z" fill="#00dd80"/></g><g><path d="m369.833 271h-14.666c-8.284 0-15-6.716-15-15s6.716-15 15-15h14.666c8.284 0 15 6.716 15 15s-6.716 15-15 15z" fill="#00aa95"/></g></g></svg>