<?xml version="1.0" encoding="iso-8859-1"?>
<!-- Generator: Adobe Illustrator 19.0.0, SVG Export Plug-In . SVG Version: 6.00 Build 0)  -->
<svg version="1.1" id="Capa_1" xmlns="http://www.w3.org/2000/svg" xmlns:xlink="http://www.w3.org/1999/xlink" x="0px" y="0px"
	 viewBox="0 0 512 512" style="enable-background:new 0 0 512 512;" xml:space="preserve">
<circle style="fill:#0CC27C;" cx="256" cy="256" r="256"/>
<path style="fill:#0DA366;" d="M512,256c0-12.462-0.909-24.711-2.63-36.698l-67.87-67.871l-371,38.085l79.469,79.469L70.5,392.418
	l107.448,107.448C202.558,507.736,228.779,512,256,512C397.385,512,512,397.385,512,256z"/>
<rect x="97.56" y="168.5" style="fill:#FFFFFF;" width="54.25" height="198.96"/>
<rect x="84.62" y="331.35" style="fill:#CED7DB;" width="80.14" height="44.651"/>
<rect x="360.19" y="168.5" style="fill:#E0E0E0;" width="54.25" height="198.96"/>
<rect x="347.24" y="331.35" style="fill:#AFBDC4;" width="80.14" height="44.651"/>
<rect x="228.87" y="168.5" style="fill:#FFFFFF;" width="54.25" height="198.96"/>
<rect x="255.95" y="168.5" style="fill:#E0E0E0;" width="27.17" height="198.96"/>
<rect x="215.93" y="331.35" style="fill:#CED7DB;" width="80.14" height="44.651"/>
<rect x="255.95" y="331.35" style="fill:#AFBDC4;" width="40.12" height="44.651"/>
<rect x="70.5" y="354.33" style="fill:#EBEEF0;" width="371" height="38.09"/>
<rect x="255.95" y="354.33" style="fill:#CED7DB;" width="185.55" height="38.09"/>
<polygon style="fill:#EBEEF0;" points="81.17,171.783 256.304,54.249 430.83,170.479 "/>
<g>
	<polygon style="fill:#CED7DB;" points="256.304,54.249 255.952,54.485 255.952,171.131 430.83,170.479 	"/>
	<rect x="70.5" y="151.43" style="fill:#CED7DB;" width="371" height="38.09"/>
</g>
<rect x="255.95" y="151.43" style="fill:#AFBDC4;" width="185.55" height="38.09"/>
<g>
</g>
<g>
</g>
<g>
</g>
<g>
</g>
<g>
</g>
<g>
</g>
<g>
</g>
<g>
</g>
<g>
</g>
<g>
</g>
<g>
</g>
<g>
</g>
<g>
</g>
<g>
</g>
<g>
</g>
</svg>
