<svg id="Layer_1" enable-background="new 0 0 512 512" height="512" viewBox="0 0 512 512" width="512" xmlns="http://www.w3.org/2000/svg"><g><path d="m411.506 290.133h28.725v34.133h-28.725z" fill="#f47f31"/><path d="m435.2 253.867v-83.2c0-9.426-7.641-17.067-17.067-17.067h-17.067-341.332c-19.17 0-34.649 15.803-34.12 35.093v65.174z" fill="#eb6a2f"/><g><path d="m233.49 224.957h-173.757v-208.474c0-9.103 7.38-16.483 16.483-16.483h17.651l17.066 3.606 17.067-3.606h85.917c9.103 0 16.483 7.38 16.483 16.483v26.184h3.09z" fill="#7da8ff"/><path d="m213.917 0h-23.694c9.103 0 16.483 7.38 16.483 16.483v208.474h23.694v-208.474c0-9.103-7.38-16.483-16.483-16.483z" fill="#7092ff"/><path d="m93.867 0h34.133v224.957h-34.133z" fill="#365e7d"/><path d="m188.267 85.333h-18.133c-4.418 0-8-3.582-8-8v-35.2c0-4.418 3.582-8 8-8h18.133c4.418 0 8 3.582 8 8v35.2c0 4.419-3.582 8-8 8z" fill="#ffdc67"/></g><g><path d="m401.067 224.957v-182.29c0-4.713-3.821-8.533-8.533-8.533h-153.6c-4.713 0-8.533 3.82-8.533 8.533v182.291h34.133l51.2-20.157 51.2 20.157h34.133z" fill="#95d6a4"/><path d="m366.933 224.957v-134.77c0-1.993-1.379-3.72-3.324-4.154-6.781-1.511-12.916-7.506-14.445-14.464-.426-1.938-2.165-3.303-4.15-3.303h-58.56c-1.993 0-3.72 1.379-4.154 3.325-1.511 6.781-7.506 12.916-14.464 14.445-1.938.426-3.303 2.165-3.303 4.15v134.772" fill="#ccf49f"/><ellipse cx="315.733" cy="170.667" fill="#95d6a4" rx="17.067" ry="17.067" transform="matrix(.23 -.973 .973 .23 77.092 438.743)"/><g><path d="m315.733 127.193c-4.268 0-7.726-3.459-7.726-7.726v-17.067c0-4.267 3.459-7.726 7.726-7.726 4.268 0 7.726 3.459 7.726 7.726v17.067c.001 4.267-3.458 7.726-7.726 7.726z" fill="#95d6a4"/></g><path d="m392.533 34.133h-23.694c4.713 0 8.533 3.82 8.533 8.533v182.291h23.694v-182.29c.001-4.713-3.82-8.534-8.533-8.534z" fill="#78c2a4"/></g><path d="m435.2 494.933c0 9.426-7.641 17.067-17.067 17.067h-358.4c-18.851 0-34.133-15.282-34.133-34.134v-290.133l.014.959c.51 18.592 16.231 33.174 34.83 33.174h357.69c9.426 0 17.067 7.641 17.067 17.067v256z" fill="#fc974d"/><path d="m418.134 221.867h-23.694c9.426 0 17.067 7.641 17.067 17.067v256c0 9.426-7.641 17.067-17.067 17.067h23.694c9.426 0 17.067-7.641 17.067-17.067v-256c-.001-9.426-7.642-17.067-17.067-17.067z" fill="#f47f31"/><path d="m137.067 477.867h-52.267c-4.418 0-8-3.582-8-8v-18.133c0-4.418 3.582-8 8-8h52.267c4.418 0 8 3.582 8 8v18.133c0 4.418-3.582 8-8 8z" fill="#ffdc67"/><path d="m435.2 290.133h17.066c18.851 0 34.133 15.282 34.133 34.133v68.267c0 18.851-15.282 34.133-34.133 34.133h-119.466c-9.426 0-17.067-7.641-17.067-17.067v-68.267c0-9.426 7.641-17.067 17.067-17.067h102.4z" fill="#f47f31"/><path d="m452.267 290.133h-17.067v.649c15.678 3.086 27.506 16.902 27.506 33.485v68.267c0 18.851-15.282 34.133-34.133 34.133h23.694c18.851 0 34.133-15.282 34.133-34.133v-68.267c0-18.852-15.282-34.134-34.133-34.134z" fill="#eb6a2f"/><ellipse cx="366.934" cy="375.467" fill="#ffdc67" rx="17.067" ry="17.067" transform="matrix(.407 -.914 .914 .407 -125.338 557.907)"/></g></svg>