<?xml version="1.0" encoding="utf-8"?>
<!-- Generator: Adobe Illustrator 25.2.1, SVG Export Plug-In . SVG Version: 6.00 Build 0)  -->
<svg version="1.1" id="Capa_1" xmlns="http://www.w3.org/2000/svg" xmlns:xlink="http://www.w3.org/1999/xlink" x="0px" y="0px"
	 viewBox="0 0 86 201.5" style="enable-background:new 0 0 86 201.5;" xml:space="preserve">
<style type="text/css">
	.st0{fill:none;stroke:#FFB000;stroke-miterlimit:10;}
	.st1{fill:#FFFFFF;stroke:#FFB000;stroke-width:0.792;stroke-miterlimit:10;}
	.st2{fill:#FFD880;stroke:#FFB000;stroke-width:0.792;stroke-miterlimit:10;}
	.st3{fill:#FFB000;}
	.st4{fill:none;stroke:#FFFFFF;stroke-width:0.6336;stroke-linecap:round;stroke-linejoin:round;}
	.st5{fill:#0084FF;}
	.st6{fill:#C36F0B;}
	.st7{fill:#6C757D;}
	.st8{fill:#EAEAFF;}
	.st9{fill:#FFFFFF;}
	.st10{fill:#B65A18;}
	.st11{fill:#FFFFFF;stroke:#FF8400;stroke-width:1.1089;stroke-miterlimit:10;}
	.st12{fill:#FF8400;}
	.st13{fill:none;stroke:#FFFFFF;stroke-width:0.9504;stroke-linejoin:round;}
	.st14{fill:none;stroke:#FFB000;stroke-width:0.4752;stroke-miterlimit:10;}
	.st15{fill:#FFFFFF;stroke:#000000;stroke-width:0.241;stroke-miterlimit:10;}
</style>
<g id="Layer_2">
	<g id="Слой_1">
		<g id="_1">
			<g id="CHAIR">
				<line class="st0" x1="35.6" y1="177.6" x2="60.4" y2="177.6"/>
				<line class="st0" x1="27" y1="123.2" x2="70.6" y2="194.1"/>
				<line class="st0" x1="69" y1="123.2" x2="25.5" y2="194.1"/>
				<path class="st1" d="M78,117.3c0,0.6-1.4,1.2-3.7,1.7c-5.1,1.1-15,1.8-26.3,1.8s-21.2-0.7-26.3-1.8c-2.4-0.5-3.7-1.1-3.7-1.7
					c0-1.9,13.4-3.4,30-3.4S78,115.4,78,117.3z"/>
				<path class="st2" d="M78,117.3v3.3c0,1.9-13.4,3.4-30,3.4s-30-1.5-30-3.4v-3.3c0,0.6,1.4,1.2,3.7,1.7c5.1,1.1,15,1.8,26.3,1.8
					s21.2-0.7,26.3-1.8C76.6,118.5,78,118,78,117.3z"/>
			</g>
			<g id="CHARACTER">
				<g id="LEGS">
					<path class="st3" d="M43.2,169.6c1.3,0.8,4.2,0.8,4.7,2.8s-2.3,9.6-1.8,12.4c0.4,2.7,0.4,8.5-4.1,9.1c-5,0.7-8.8-1-8.8-2.9
						s2.9-4,3.3-7.3c0.4-3.2,1.6-10.2,1.6-10.2L43.2,169.6z"/>
					<path class="st4" d="M36.8,178.1c0,0,2.1-1.8,5.3,0"/>
					<path class="st4" d="M36.3,180.3c0,0,2.1-1.8,5.3,0"/>
					<path class="st4" d="M35.9,182.5c0,0,2.1-1.8,5.3,0"/>
					<path class="st3" d="M60.2,179.2c-0.8,1.2-5.7,4.3-5.4,5.6c0.3,1.4,4.7,5.4,5,7.6c0.3,2.1-0.1,5.4,1.8,6.3s11.9,1,13.6,0
						c1.6-1-0.1-4.2-1.9-4.9c-1.8-0.7-6.5-8.6-6.2-13.4L60.2,179.2z"/>
					<path class="st4" d="M69,184.9c0,0-2.1-1.8-5.3,0"/>
					<path class="st4" d="M69.8,187.1c0,0-2.1-1.8-5.3,0"/>
					<path class="st4" d="M70.8,189.3c0,0-2.1-1.8-5.3,0"/>
					<path class="st5" d="M30,94c0,0-29,11.6-29,21.5c0,17.7,24.8,50.4,29.8,49.9c5.1-0.5,8.5-4.6,8.3-6.7
						c-0.2-2.1-9.3-29.7-15.9-39.1c0,0,20-5.1,22.6-5.2c2.6-0.1,16.2,7.2,16.4,7.5s-7,20-2.8,45.8c0.6,3.6,11.5,4.4,12.6,2.9
						s13.1-52.3,11.5-56.4c-1.7-4.1-15.5-15.3-23.9-19.8C53.5,91.2,30,94,30,94z"/>
					<path class="st6" d="M68.6,175.8c-0.2,0.6-1,3.2-1.6,4.6c-0.6,1.3-7.5,0.9-6.8-1.2c0.6-1.7,0.6-4.1,0.6-4.8
						C61.9,174.8,65.1,176,68.6,175.8z"/>
					<path class="st7" d="M68.7,175.8l1.9-4.6c0,0-6.3,0.8-10.5-2.1l0.2,5.2C60.3,174.2,64.7,176.2,68.7,175.8z"/>
					<path class="st6" d="M40.3,164.2c0,0,2.3,4.8,2.9,5.5c0.6,0.7-2.6,4.2-5.1,4l-4-5.4C34,168.2,38.4,167.4,40.3,164.2z"/>
					<path class="st7" d="M38.8,160l1.6,4.2c0,0-2.5,3.5-6.7,4.2l-2.9-3C30.8,165.3,36.2,164.7,38.8,160z"/>
				</g>
				<g id="T-SHIRT">
					<path class="st8" d="M57.4,34.4c2.6,1.9,9.5,5.2,13.9,8.2c3.5,2.4,6.6,13.1,6.6,13.1s-4.9,5-13,6.9c0,0-4.7,14.4-6.4,31.3
						c0,0-15,5.5-28.5,0c0,0-5.5-30.9-6.1-31S13,59.6,9.7,54.6c0,0,3.9-11.3,9.2-13.5c5.8-2.4,13.5-5.7,16.2-7.1
						C36.5,33.3,57.4,34.4,57.4,34.4z"/>
					<path class="st9" d="M21.6,40L10.3,55.4c-0.1-0.1-0.2-0.3-0.4-0.4l10.7-14.5L21.6,40z"/>
					<path class="st9" d="M27.2,37.7L12.5,57.5c-0.1-0.1-0.3-0.2-0.4-0.3l14.1-19L27.2,37.7z"/>
					<path class="st9" d="M32.9,35.1l-17.8,24c-0.2-0.1-0.3-0.2-0.5-0.3l17.2-23.2l0,0C32.2,35.5,32.5,35.3,32.9,35.1z"/>
					<path class="st9" d="M37.7,33.8L17.8,60.6c-0.2-0.1-0.3-0.2-0.5-0.2L37,33.8C37.2,33.8,37.4,33.8,37.7,33.8z"/>
					<path class="st9" d="M41.5,33.8l-20.8,28l-0.5-0.2l20.6-27.8L41.5,33.8z"/>
					<path class="st9" d="M45.2,33.9l-21.5,29c-0.1,0-0.3-0.1-0.6-0.2l21.4-28.8l0,0C44.7,33.9,45,33.9,45.2,33.9z"/>
					<path class="st9" d="M48.9,34L24.8,66.6c-0.1-0.2-0.1-0.5-0.2-0.7L48.2,34L48.9,34z"/>
					<path class="st9" d="M52.6,34.2l-27,36.4c0-0.2-0.1-0.5-0.1-0.7l26.5-35.7L52.6,34.2z"/>
					<path class="st9" d="M56.3,34.4L26.4,74.6c0-0.2-0.1-0.5-0.1-0.7l29.3-39.6L56.3,34.4z"/>
					<path class="st9" d="M59.2,35.5l-32,43.2c0-0.2-0.1-0.5-0.1-0.7l31.7-42.7C58.9,35.3,59,35.4,59.2,35.5z"/>
					<path class="st9" d="M61.9,37.1L27.9,82.8c0-0.2-0.1-0.5-0.1-0.7l33.6-45.3C61.5,36.9,61.7,37,61.9,37.1z"/>
					<path class="st9" d="M64.5,38.6L28.7,86.9c0-0.2-0.1-0.5-0.1-0.7l0,0l35.5-47.9L64.5,38.6z"/>
					<path class="st9" d="M67.2,40.1l-37.8,51c0-0.2-0.1-0.5-0.1-0.7l37.5-50.5L67.2,40.1z"/>
					<path class="st9" d="M69.9,41.7l-39,52.6l-0.5-0.2l39.1-52.7L69.9,41.7z"/>
					<path class="st9" d="M72.3,43.5L33.9,95.3c-0.2,0-0.4-0.1-0.6-0.2l38.5-52C72,43.2,72.1,43.4,72.3,43.5z"/>
					<path class="st9" d="M74.1,46.2L37.2,95.9c-0.2,0-0.4-0.1-0.6-0.1l37.2-50.2C73.9,45.9,74,46,74.1,46.2z"/>
					<path class="st9" d="M64.8,63c-0.1,0.3-0.3,0.8-0.5,1.6l0,0L40.7,96.3c-0.2,0-0.4,0-0.7,0L64.8,63z"/>
					<path class="st9" d="M75.6,49.3l-9.7,13.1c-0.3,0.1-0.6,0.2-0.8,0.2l10.3-13.9C75.4,48.9,75.5,49.1,75.6,49.3z"/>
					<path class="st9" d="M62.5,71.1c-0.1,0.4-0.2,0.9-0.3,1.4l0,0L44.5,96.4l0,0c-0.2,0-0.5,0-0.7,0L62.5,71.1z"/>
					<path class="st9" d="M76.9,52.7l-5.7,7.7c-0.3,0.2-0.7,0.3-1.1,0.5l6.6-8.8C76.8,52.3,76.8,52.5,76.9,52.7z"/>
					<path class="st9" d="M60.9,78.5c-0.1,0.4-0.2,0.8-0.3,1.3l0,0L48.5,96.1c-0.2,0-0.5,0.1-0.7,0.1L60.9,78.5z"/>
					<path class="st9" d="M59.6,85.3c-0.1,0.4-0.1,0.8-0.2,1.2l-6.6,8.9c-0.3,0.1-0.5,0.1-0.8,0.2L59.6,85.3z"/>
				</g>
				<g id="HANDS">
					<g id="RIGHT">
						<path class="st6" d="M82.6,81.4C82.2,88,69.6,94.2,62.9,97c-0.2,1.4-1.1,2-2.9,2.4c-3.6,0.9-3.3,3.3-3.5,3.8
							c-0.3,0.7-3.9,1.6-4.7,1c-0.5-0.4,0.9-4.9,1.8-6.5c0.5-1,3.9-2.9,6.2-3.7c0,0,11.4-13.8,13-14.6c0,0-4.2-11.6-6-15.7
							c-0.3-0.6-0.5-1-0.6-1.3c0,0,6.3-1.9,10.6-5.6c0,0,0.4,1,1,2.6C79.5,64.1,82.9,74.6,82.6,81.4z"/>
						<path class="st10" d="M77.8,59.3c-0.9,0.9-3.6,3-11,4.3c-0.3-0.6-0.5-1-0.6-1.3c0,0,6.3-1.9,10.6-5.6
							C76.8,56.7,77.2,57.7,77.8,59.3z"/>
					</g>
					<g id="LEFT">
						<path class="st6" d="M36.9,104c-1,0.4-3.8-0.4-4.1-0.8c-0.3-0.4-0.6-3-3.5-3.9c-2-0.6-3-1.3-2.9-3.3c-5.9-2-21.6-8-22.3-14.8
							c-0.5-4.5,4.3-17.5,6.2-22.7c0.5-1.3,0.8-2.2,0.8-2.2c4.6,3.8,10.5,5.8,10.5,5.8l-0.5,1.3l-5.7,15.6
							c2.6,1,12.1,12.6,13.6,14.4c3.1,0.6,6.4,2.7,6.8,3.9C36.2,98.7,37.9,103.6,36.9,104z"/>
						<path class="st10" d="M11.2,56.4c4.6,3.8,10.5,5.8,10.5,5.8l-0.5,1.3c-3.1-0.5-8.3-1.7-10.8-5C10.9,57.2,11.2,56.4,11.2,56.4z
							"/>
					</g>
				</g>
				<g id="LAPTOP">
					<path class="st11" d="M67.4,108.3H21.6L13.8,78c-0.4-1.5,0.4-3,1.9-3.4c0.3-0.1,0.5-0.1,0.8-0.1h56c1.5,0,2.8,1.2,2.8,2.8
						c0,0.3,0,0.5-0.1,0.8L67.4,108.3z"/>
					<path class="st12" d="M66,108.1H23l-7.3-28.5c-0.5-1.7-0.8-3.6,0.9-3.6h55.7c1.7,0,1.4,2,0.9,3.6L66,108.1z"/>
					<path class="st13" d="M47.1,94.4h-5.2c-0.4,0-0.7-0.2-0.8-0.6l-0.6-3.4c-0.1-0.2,0.1-0.4,0.3-0.5c0,0,0.1,0,0.1,0h7.3
						c0.2,0,0.4,0.2,0.4,0.4c0,0,0,0.1,0,0.1l-0.6,3.4C47.8,94.2,47.5,94.4,47.1,94.4z"/>
				</g>
				<g id="HEAD">
					<path id="NECK" class="st10" d="M51.5,25.1c0,0-0.3,5.7,6,9.3c0,0-6.2,4.5-11.3,10.3c0,0-5.5-6.7-11-10.7c0,0,5.5-4.3,5.5-9
						L51.5,25.1z"/>
					<path id="HEAD-2" class="st6" d="M56.8,21.9c-0.6,0.8-1.8,2.4-2.3,3.5c-1,5.3-4.3,8.7-8.5,8.7c-3.6,0-6.1-4.1-7.2-7.9l0,0
						c0-0.1,0-0.1-0.1-0.2c-0.3-1-1.8-3.1-2.6-4.1c-0.2-0.3-0.2-0.7,0.1-1c0,0,0.1,0,0.1-0.1c0.9-0.5,1.4-0.1,1.7,0.4
						c-0.1-3.8,0-7.8,2.2-7.8c2.5,0,11-0.2,12.4,0.3c1.3,0.4,2.1,2.2,2.1,7.8c0.2-0.6,0.7-1.3,1.8-0.7C56.9,21.1,57,21.5,56.8,21.9
						C56.8,21.9,56.8,21.9,56.8,21.9z"/>
					<g id="HAIR">
						<path class="st3" d="M58.3,15c-1.7,2.1-3.7,7-3.7,7s0.7-7.5-2.2-7.5c-1.4,0-4.2,2-7.1,1.7c-2.4-0.3-5.5-3.6-6.7-1.4
							c-0.7,1.7-0.6,4.2-0.5,6.9c-0.7-3.4-2.3-5.7-3.1-7c-1.8-0.9-3.2-2.9-2.8-4.9c0.7-3.4,3.3-3.2,3.3-3.2C39.9,7,37.3,4.5,42.7,2
							s11.5-0.1,12,2.8c0.4,2,1.6,1,3.5,1.9C60.9,8,60.3,12.6,58.3,15z"/>
						<path class="st14" d="M42.3,17.3c7.5,1,8.2-3.1,11.5-2.6"/>
					</g>
				</g>
			</g>
		</g>
	</g>
</g>
<rect x="216.8" y="0.1" class="st15" width="200" height="200"/>
</svg>
