<?xml version="1.0" encoding="utf-8"?>
<!-- Generator: Adobe Illustrator 25.2.1, SVG Export Plug-In . SVG Version: 6.00 Build 0)  -->
<svg version="1.1" id="Capa_1" xmlns="http://www.w3.org/2000/svg" xmlns:xlink="http://www.w3.org/1999/xlink" x="0px" y="0px"
	 viewBox="0 0 147.6 202.3" style="enable-background:new 0 0 147.6 202.3;" xml:space="preserve">
<style type="text/css">
	.st0{fill:#FFFFFF;stroke:#FFB000;stroke-width:0.7996;stroke-miterlimit:10;}
	.st1{fill:none;stroke:#6562CF;stroke-width:0.7996;stroke-miterlimit:10;}
	.st2{fill:#FFCFC9;}
	.st3{fill:#FFB000;}
	.st4{fill:#0084FF;}
	.st5{fill:none;stroke:#FFFFFF;stroke-width:0.7996;stroke-miterlimit:10;}
	.st6{fill:#EAEEFF;}
	.st7{fill:#FFC0B7;}
	.st8{fill:none;stroke:#FFB000;stroke-width:0.7996;stroke-miterlimit:10;}
	.st9{fill:none;stroke:#FFB0AF;stroke-width:0.4797;stroke-linecap:round;stroke-miterlimit:10;}
	.st10{fill:#FFFFFF;}
	.st11{fill:none;stroke:#000000;stroke-width:0.1599;stroke-miterlimit:10;}
	.st12{fill:#E2E2FF;}
	.st13{fill:#FFFFFF;stroke:#FF8400;stroke-width:0.9595;stroke-miterlimit:10;}
	.st14{fill:none;stroke:#FF8400;stroke-width:0.7996;stroke-miterlimit:10;}
	.st15{fill:#FFFFFF;stroke:#000000;stroke-width:0.241;stroke-miterlimit:10;}
</style>
<g id="Layer_2">
	<g id="Слой_1">
		<g id="_2">
			<g id="CHAIR">
				<path class="st0" d="M118.8,128.4c0,1.8-1.4,3.2-3.2,3.2H65.9c-1.8,0-3.2-1.4-3.2-3.2s1.4-3.2,3.2-3.2h49.7
					C117.4,125.3,118.8,126.7,118.8,128.4z"/>
				<path class="st0" d="M101,136.8H82.3c-1.3,0-2.3-1-2.3-2.3v-2.9l0,0h23.2l0,0v2.9C103.3,135.8,102.3,136.8,101,136.8z"/>
				<rect x="89.2" y="136.8" class="st0" width="4.9" height="39.2"/>
				<path class="st0" d="M94.4,186.1h-5.5c-1.1,0-2-0.9-2-2v-6.2c0-1.1,0.9-2,2-2h5.5c1.1,0,2,0.9,2,2v6.2
					C96.4,185.2,95.5,186.1,94.4,186.1z"/>
				<path class="st1" d="M113.3,195.2c0-5-4.1-9.1-9.1-9.1H79.1c-5,0-9.1,4.1-9.1,9.1"/>
				<circle class="st0" cx="113.5" cy="196.3" r="3.6"/>
				<circle class="st0" cx="69.8" cy="196.3" r="3.6"/>
				<circle class="st0" cx="91.8" cy="196.3" r="3.6"/>
			</g>
			<g id="WOMAN">
				<g id="LEGS">
					<g id="LEFT_LEG">
						<path class="st2" d="M44.2,180.9c-1.6,3.9-3.1,7-4.2,9.1c-0.8,1.5-2.3,10.6-10,6.9c-0.3-0.1,3-1,4.1-8.4
							c0.4-2.6,0.7-5.1,1-7.6C38.1,181.2,41.9,181,44.2,180.9z"/>
						<path id="SHOE" class="st3" d="M42.6,200.6c0,0,3.1-10.7-1-12.4c-1.3-0.5-2.9,0.8-3.4,5.3c-0.4,3.9-6.1,4.6-6.7,2
							c0,0-7.1,1.4-7.1,5L42.6,200.6z"/>
						<path class="st4" d="M46.3,180.8c0,0-8.6,0.6-13.1,0c0,0-6-62.4-5.1-68.8c1.1-7.7,26.8-14.6,40.1-16.7l2.4-11.1
							c0,0,18-0.3,28.1-0.3c0,0,10.9,19.3,9.8,32.1c-1.1,12.8-24.6,9.9-55.9,9.9C52.7,125.8,62.2,145.1,46.3,180.8z"/>
					</g>
					<g id="RIGHT_LEG">
						<path class="st2" d="M72.4,181.2c-2.4,0.2-4.8,0.2-7.2-0.1c0.8,3.1,1.5,6.1,2.1,8.7c0.4,1.7-2.1,4-2.8,5.7l0.1,0
							c3.2-0.5,7.5,2.5,7-2.2C71.3,188.6,72,187.4,72.4,181.2z"/>
						<path id="SHOE-2" class="st3" d="M71.6,189.8c1.1,0,2.9,2,2.7,5.2c-0.1,1.9-0.5,3.8-1.2,5.6H60.8c0.2-3.4,3.9-5,3.9-5
							c3.2-0.5,7.3,2.5,6.9-2.2L71.6,189.8z"/>
						<path class="st4" d="M81.3,101.2c0,0-27.3,4.9-30.4,13.1c-3.1,8.2,11.3,66.5,11.3,66.5c8.4,1.3,12.7,0,12.7,0
							c8.7-39.9-1.5-53.2-1.5-53.2c20.3-0.9,33.1,1.1,35.1-11.6C109.2,111.9,104.7,96.5,81.3,101.2z"/>
						<path class="st5" d="M80.8,101.2c0,0-27.3,4.9-30.4,13.1s11.3,66.5,11.3,66.5"/>
					</g>
				</g>
				<g id="LEFT_HAND">
					<path class="st6" d="M74.8,75.1c1.6-3.7-5.6-8.5-12.9-6.6c0,0,2.5-29.5,8.3-33.3c5.6-3.6,7,13.4,7.2,17.5
						C77.4,52.8,78.4,68.9,74.8,75.1z"/>
					<path class="st7" d="M74.2,76c3.6-3.2-3.8-9.7-12.3-7.4c-5.3,0.8-26,5.2-27.9,6.2c-1.9,0.8-7.4,3.6-8.1,4.4
						c-0.9,1.1-1,3.8-1,4.2s0.8,2.3,0.8,2.3s1.4-0.1,1.2-1.6c-0.2-1.8,1.4-2.3,2.4-2.8c0.4-0.2,1.6-0.1,1.8,0.6
						c0.2,0.7-1.5,1.5-1.8,2c-0.4,0.7,0.1,1.6,0.1,1.6c0,0,2.6-1.4,3.1-1.6c0.5-0.2,2.6-2.7,3.5-4.9C36.1,78.8,68,81.6,74.2,76z"/>
				</g>
				<g id="HAIR">
					<path class="st3" d="M70.3,19.4c-0.6-1.5-3.1-9,0.9-12.3S80.5,0.5,87,1.1c6.4,0.5,8.2,9.1,11.9,10.5s8.1-0.3,12.3,3.5
						c4.2,3.8-0.2,9.7,4.1,12.9c4.3,3.2,8.4-0.8,12.7,4.8c4.9,6.4-2.3,13.9,4.7,14.5c7.7,0.7,12.4,13.8,9.1,22.4h-40.2
						C75.9,65.6,70.3,19.4,70.3,19.4z"/>
					<path class="st8" d="M73,6.7c3.9-3.5,8.5-5.8,14.9-5.5s8.9,7.5,12.6,8.8s8.3-0.5,12.7,3.2s0.2,10.3,4.5,13.5
						c4.4,3.1,8.4-1.1,12.8,4.5c5.1,6.4-1.8,13.8,5.2,14.2c7.7,0.5,12.8,10.2,8.9,21.3"/>
				</g>
				<g id="BLOUSE">
					<path class="st6" d="M70.6,84c0,0-2.3-18.6-3.5-19.5c-2.7-2.2-4.9-5.3-3.7-9.6c0.6-2.4,5.8-18.6,6.9-19.7s8.3-3.6,8.3-3.6h20.3
						c2.3,0.8,9.6,3.4,11.3,6c8.5,13,11.2,33.8,11.2,33.8h-10.5c0,0-5.1-11.4-6.9-11.5c-1.8-0.1-5.2,23.9-5.2,23.9
						S87.2,87.1,70.6,84z"/>
					<path class="st5" d="M70.4,84c0,0-2.3-18.6-3.5-19.5c-2.7-2.2-5-5.5-3.9-9.8"/>
					<path class="st5" d="M84.8,33.8c0,0-9.4,17.8-7,51.8"/>
					<circle class="st5" cx="83.7" cy="47.7" r="1.2"/>
					<circle class="st5" cx="82" cy="56.8" r="1.2"/>
					<circle class="st5" cx="81.1" cy="65.8" r="1.2"/>
				</g>
				<g id="RIGHT_HAND">
					<path class="st2" d="M120.2,76.5c-5.2,5.5-39-1.9-39-1.9s-1.8,2.8-3.8,2.9c-2.1,0.1-4-0.6-5.1,0.3s-2.1,2.4-2.9,2.6
						c-1,0.2-2,0.2-3,0.1c0.3-1,0.8-1.9,1.2-2.8c-0.6,0.5-1.4,1.4-1.8,1.8c-0.4,0.4-1,0.4-1.4,0.1c0,0,1.4-2.1,1.9-2.6
						c0.5-0.6,2.2-1.9,3.1-2.3c1.1-0.5,7.3-3.5,10.5-4c3.3-0.5,30.2-2.3,30.2-2.3C119.7,68.3,124.5,71.9,120.2,76.5z"/>
					<path class="st9" d="M67.5,80.2c0,0,1.9-3.4,2.6-3.7c1.1-0.6,2.6-1.5,2.6-1.5"/>
					<path class="st9" d="M68.8,80.1c0,0,1.7-2.8,2.4-3.1c1.1-0.6,2.6-1.5,2.6-1.5"/>
				</g>
				<g id="NECK">
					<path class="st2" d="M86.7,19.1c0,0,2.8,8.9,12.1,12.5c0,0-13,5.7-20.3,0V19.4L86.7,19.1z"/>
					<path class="st7" d="M80.4,32.7c-0.7-0.3-1.3-0.7-1.9-1.2V19.4l8.2-0.3c0,0,0.1,0.2,0.3,0.7C87.8,23.6,85.6,31.3,80.4,32.7z"/>
				</g>
				<path id="HEAD" class="st2" d="M86.5,20.5c-0.1,2.9-5.6,9.8-8.6,9.8c-2.5,0-7.1-7.5-7.7-10.9c-0.6-3.5,0-9.6,5-9.7
					c3.1-0.1,4.6,2.8,5.6,6.2c1.1,4,4.6,3.1,4.6,3.1s1-2.2,2.4-1.1C89.1,18.9,86.5,20.5,86.5,20.5z"/>
			</g>
			<g id="TABLE">
				<polyline class="st8" points="6.9,200.6 14.9,90.4 22.9,200.8 				"/>
				<path class="st10" d="M6.2,90.4h105.3c1.4,0,2.5-1.1,2.5-2.5l0,0c0-1.4-1.1-2.5-2.5-2.5c0,0,0,0,0,0H6.2V90.4z"/>
				<path class="st8" d="M6.2,90.4h105.3c1.4,0,2.5-1.1,2.5-2.5l0,0c0-1.4-1.1-2.5-2.5-2.5c0,0,0,0,0,0H6.2"/>
			</g>
			<g id="LAPTOP">
				<path class="st11" d="M47.9,48H5.4c-1.6,0-2.9,1.3-2.9,2.9c0,0.3,0.1,0.7,0.2,1L13.4,81h49.7L52,50.9C51.4,49.2,49.7,48,47.9,48
					z"/>
				<path class="st10" d="M48.3,48H5.6c-2,0-3.3,2.1-2.7,4.1L12.2,79c0.4,1.2,1.5,2,2.7,2h47.7L52.3,51C51.7,49.2,50.1,48,48.3,48z"
					/>
				<path class="st12" d="M46.5,50H3.9C2.3,50,1,51.3,1,52.9c0,0.3,0.1,0.7,0.2,1l9.3,25.3c0.4,1.1,1.5,1.9,2.7,1.9h47.7L50.6,52.9
					C49.9,51.2,48.3,50,46.5,50z"/>
				<path class="st13" d="M13.3,81h81.4c2.4,0,4.3,1.9,4.3,4.3l0,0l0,0l0,0H17.5C15.2,85.3,13.3,83.4,13.3,81L13.3,81L13.3,81
					L13.3,81z"/>
				<path class="st14" d="M47.9,48H5.4c-1.6,0-2.9,1.3-2.9,2.9c0,0.3,0.1,0.7,0.2,1L13.4,81h49.7L52,50.9C51.4,49.2,49.7,48,47.9,48
					z"/>
				
					<ellipse transform="matrix(0.6691 -0.7431 0.7431 0.6691 -39.8786 44.232)" class="st10" cx="29.7" cy="66.9" rx="2.7" ry="3.4"/>
				
					<ellipse transform="matrix(0.6691 -0.7431 0.7431 0.6691 -38.7986 44.6215)" class="st14" cx="30.7" cy="65.9" rx="2.7" ry="3.4"/>
			</g>
		</g>
	</g>
</g>
<rect x="245.9" y="0.2" class="st15" width="200" height="200"/>
</svg>
