<?xml version="1.0" encoding="utf-8"?>
<!-- Generator: Adobe Illustrator 25.2.1, SVG Export Plug-In . SVG Version: 6.00 Build 0)  -->
<svg version="1.1" id="Capa_1" xmlns="http://www.w3.org/2000/svg" xmlns:xlink="http://www.w3.org/1999/xlink" x="0px" y="0px"
	 viewBox="0 0 101.7 201.1" style="enable-background:new 0 0 101.7 201.1;" xml:space="preserve">
<style type="text/css">
	.st0{fill:#FFFFFF;stroke:#FFB000;stroke-miterlimit:10;}
	.st1{fill:none;stroke:#FFB000;stroke-miterlimit:10;}
	.st2{fill:#B65A18;}
	.st3{fill:#FFB000;}
	.st4{fill:#C36F0B;}
	.st5{fill:#0084FF;}
	.st6{fill:none;stroke:#FFFFFF;stroke-width:0.6004;stroke-miterlimit:10;}
	.st7{fill:#F0E1D4;}
	.st8{fill:#F0E1D4;stroke:#FFFFFF;stroke-width:0.7505;stroke-linejoin:round;}
	.st9{fill:#E2E2FF;stroke:#FF8400;stroke-width:0.7505;stroke-linejoin:round;}
	.st10{fill:none;stroke:#FF8400;stroke-linecap:round;stroke-linejoin:round;stroke-miterlimit:10;}
	.st11{fill:#722D54;}
	.st12{fill:none;stroke:#722D54;stroke-width:0.4503;stroke-miterlimit:10;}
</style>
<g id="Layer_2">
	<g id="Слой_1">
		<g id="_1">
			<g id="CHAIR">
				<path class="st0" d="M22.2,123.6h43.6c3.3,0,5.9,2.7,5.9,5.9l0,0c0,3.3-2.7,5.9-5.9,5.9H22.2c-3.3,0-5.9-2.7-5.9-5.9l0,0
					C16.3,126.3,18.9,123.6,22.2,123.6z"/>
				<path class="st1" d="M19.9,199.5L19.9,199.5c-0.2,0-0.4-0.2-0.4-0.4c0,0,0,0,0-0.1l8.9-63.6h29.2l-37.4,63.8
					C20.1,199.5,20,199.5,19.9,199.5z"/>
				<path class="st1" d="M67.8,199.5L67.8,199.5c0.2,0,0.4-0.2,0.4-0.4c0,0,0,0,0-0.1l-10.4-63.6H28.6l38.9,63.8
					C67.6,199.5,67.7,199.5,67.8,199.5z"/>
			</g>
			<g id="WOMAN">
				<g id="LEGS">
					<g id="RIGHT_FOOT">
						<path class="st2" d="M77.5,175.6c2,0.2,5.3,0.6,9.2,0.2c-1,3.9-1.5,7.6-2.2,10.9c-0.5,2.1,2.4,5,3.3,7.1c0,0,0,0-0.1,0
							c-4-0.6-9.3,3.1-8.8-2.7C79.5,185.1,78.1,180.8,77.5,175.6z"/>
						<path id="SHOE" class="st3" d="M79.1,186.6c-1.4,0-3.9,2.5-3.7,6.4c0.1,2.3,0.5,4.7,1.2,6.9h16c0.8-5.7-4.8-6.3-4.8-6.3
							c-4-0.6-9.1,3.1-8.6-2.7L79.1,186.6z"/>
					</g>
					<g id="LEFT_FOOT">
						<path class="st4" d="M66.4,175.8c2,0.2,6.3,0.5,10.3,0.1c-1,3.9-1.6,10.9-1.6,10.9c-0.5,2.1,2.4,5,3.3,7.1c0,0,0,0-0.1,0
							c-4-0.6-9.3,3.1-8.8-2.7C70,185.1,66.4,175.8,66.4,175.8z"/>
						<path id="SHOE-2" class="st3" d="M69.3,186.6c-1.4,0-3.6,2.5-3.4,6.4c0.1,2.3,0.5,4.7,1.2,6.9h16c0.8-5.7-4.8-6.3-4.8-6.3
							c-4-0.6-9.1,3.1-8.6-2.7L69.3,186.6z"/>
					</g>
					<g id="LEGS-2">
						<path class="st5" d="M34.3,90.4c0,0-13.7,16.6-12.8,27.7s12.4,14.4,33.3,14.1c0,0,0.6,16.6,11.5,43.5c0,0,5.1,1,11.3,0
							c0,0,5.3,0.5,9.2,0c0,0,8.3-54.4,7.3-59.9c-1.3-7.3-27.8-13.9-34.7-15.5l-5.7-9.9C53.6,90.4,42.1,91.9,34.3,90.4z"/>
						<path class="st6" d="M49.7,106.8c0,0,22,5.8,24.7,12.8c2.7,7.1,2.8,56.8,2.8,56.8"/>
					</g>
				</g>
				<g id="BLOUSE">
					<path class="st7" d="M60.8,69.6c0,0-0.9,11.9-7.2,20.8c0,0-10.4,1.8-19.4,0c0,0-8.9-9.4-11.5-19.6c0,0-8.5-17.2-4.7-20.2
						s13.4-8,13.4-8l19.5,1c2.4,1.5,7.5,3.8,12.6,6.5L60.8,69.6z"/>
					<circle class="st8" cx="45" cy="64.3" r="1.4"/>
					<circle class="st8" cx="45" cy="70" r="1.4"/>
					<circle class="st8" cx="45" cy="75.7" r="1.4"/>
				</g>
				<g id="RIGHT_HAND">
					<path class="st7" d="M63.6,50.3c5.1,2.7,20.2,37.2,13.9,40.8c-13,7.6-16.7-21.5-16.7-21.5L63.6,50.3z"/>
					<path class="st2" d="M72,92.2c1.8,0.8,6.3-0.6,11.3-3.9c5-3.3-0.7-5.5-0.7-5.5S76,80.1,71.9,82C67.8,84,68.6,90.7,72,92.2z"/>
					<polygon class="st9" points="99.2,75.4 71.7,75.4 41.5,95.1 69,95.1 					"/>
					<path class="st4" d="M89,83.5c0-0.7-4.6-4.9-6.3-3.3c-0.7,0.7-0.8,6.4-0.7,7.4C82.2,90.9,89,87.2,89,83.5z"/>
				</g>
				<g id="LEFT_HAND">
					<path class="st7" d="M18.1,50.8C16.5,52-0.1,77.3,5.8,88.9c6.6,13.1,33.5,2.2,33.5,2.2s-3.4-1.1-1.2-5.4c0,0-11.1-5.9-20.1-4.2
						c0,0,6.9-11.5,7.7-16C26.4,61,23.7,46.3,18.1,50.8z"/>
					<line class="st10" x1="45.1" y1="78" x2="50" y2="88.9"/>
					<g id="ARM">
						<path class="st4" d="M38.1,85.3c0,0,4.9-2.8,6.9-1.8c2.2,1.2,4.8,4.8,5,5.4s0.2,1.3,0.1,1.9c0,0.7-4.5,0.6-5.4,0.6
							c-0.9,0-5.5,0.5-6.3-0.3C35.5,88.3,38.1,85.3,38.1,85.3z"/>
						<path class="st2" d="M44.8,91.5c0.9,0,4.8,0.1,5.3-0.4c1-0.9,0.4-2.3-0.1-2.9c-0.5-0.5-2.9-3.5-5-4.7
							C45,83.6,47.4,87.8,44.8,91.5"/>
					</g>
				</g>
				<g id="HEAD">
					<g id="HAIR">
						<path class="st11" d="M36.6,11.2c0,0-2.2-3.5,0-5.4S39.7,1,43.7,1c4.1,0,5.7,3.2,7.6,2.9c2.6-0.4,4.3-1.3,7.6,0.5
							c2.6,1.4,2.7,6.5,5.3,6.2c2.1-0.2,4.4-0.1,5.6,2.3c0.9,1.8-0.1,6.5,1.3,7.8s4.5,1.7,4.8,5c0.3,4.5-4.3,5.1-3.1,8.7
							c1.6,4.7-0.7,7.6-4.6,8.1c-2.8,0.4-7.7-3.8-9.5-0.9c-1.5,2.4-4.8,3.5-8.7,2s-6.4-1.1-8.8-0.1c-2.4,1-5.4,2.5-7.4,0.7
							c-2-1.8-4.4-1.8-7.1-0.7c-3.7,1.5-7.7-1-7.2-4.3c0.4-2.8-3.4-3.1-3.8-6.3c-0.6-4.1,5.5-5.2,3.7-6.9c-1.8-1.8-1.7-6.9,3.5-7.6
							c5-0.6,3.9-3.7,5.3-5.9C29.2,10.6,32.9,8.3,36.6,11.2z"/>
						<path class="st12" d="M17.1,24.8c-1.7-1.9-1.1-7.6,4.1-8c5-0.3,4.1-3.5,5.7-5.5c1.3-1.7,5.6-3.7,9.7-0.2"/>
					</g>
					<g id="NECK">
						<path class="st4" d="M37.4,26.4c0,3.2,0.2,11.8-5.9,16.5c0,0,10.8,5.4,13.3,17.5c0,0,1.7-12.7,6.2-16.5c0,0-5.3-3-4.1-17.4
							L37.4,26.4z"/>
						<path class="st2" d="M47.8,38.8c-0.8,0.7-1.6,1.1-2.5,1.1c-3.8,0-7.6-5.8-8-12c0-0.6,0-1.1,0-1.6h9.5
							C46.3,32.2,46.9,36.2,47.8,38.8z"/>
					</g>
					<path id="HEAD-2" class="st4" d="M37,23.5c0-1.6,0.6-9.9,7.3-9.6s7.8,7.1,7.2,12.5s-3.9,9.1-6.2,8.8S36.8,30.2,37,23.5z"/>
				</g>
			</g>
		</g>
	</g>
</g>
</svg>
