<?xml version="1.0" encoding="utf-8"?>
<!-- Generator: Adobe Illustrator 25.2.1, SVG Export Plug-In . SVG Version: 6.00 Build 0)  -->
<svg version="1.1" xmlns="http://www.w3.org/2000/svg" xmlns:xlink="http://www.w3.org/1999/xlink" x="0px" y="0px"
	 viewBox="0 0 750 500" style="enable-background:new 0 0 750 500;" xml:space="preserve">
<style type="text/css">
	.st0{fill:#0084FF;}
	.st1{fill:#FFFFFF;}
	.st2{fill:none;stroke:#FF8400;stroke-width:0.8309;stroke-miterlimit:10;}
	.st3{fill:#EF9E7B;}
	.st4{fill:#D67F61;}
	.st5{clip-path:url(#XMLID_3_);fill:#060E38;}
	.st6{fill:none;stroke:#060E38;stroke-width:0.594;stroke-linecap:round;stroke-linejoin:round;stroke-miterlimit:10;}
	.st7{fill:#060E38;}
	.st8{fill:none;stroke:#FFDABC;stroke-width:0.8023;stroke-miterlimit:10;}
	.st9{fill:#012442;}
	.st10{fill:#005482;}
	.st11{clip-path:url(#XMLID_5_);fill:#D67F61;}
	.st12{fill:#03081D;}
	.st13{fill:#F7F4ED;}
	.st14{fill:#D80650;}
	.st15{fill:#F03C3A;}
	.st16{fill:#D9004B;}
	.st17{fill:none;stroke:#FF8400;stroke-width:0.8023;stroke-miterlimit:10;}
	.st18{fill:#FF8400;}
	.st19{fill:none;stroke:#FFFFFF;stroke-width:0.8023;stroke-miterlimit:10;}
</style>
<g id="BACKGROUND">
	<rect x="0.2" y="0" class="st0" width="750" height="339.4"/>
</g>
<g id="OBJECTS">
	<g>
		<g>
			<path class="st1" d="M355.7,210.1h-66.2l-3.2-29.2l60.6-83.6h47.6v80.8h16.6v32h-16.6v24.4h-38.8V210.1z M355.7,178.1v-41.2
				l-29.6,41.2H355.7z"/>
		</g>
		<g>
			<path class="st1" d="M656.8,210.1h-66.2l-3.2-29.2L648,97.3h47.6v80.8h16.6v32h-16.6v24.4h-38.8V210.1z M656.8,178.1v-41.2
				l-29.6,41.2H656.8z"/>
		</g>
		<g>
			<ellipse transform="matrix(0.7071 -0.7071 0.7071 0.7071 29.3561 400.7949)" class="st1" cx="498.5" cy="165" rx="73" ry="73"/>
			<path class="st2" d="M579.6,165c0,44.8-36.3,81.1-81.1,81.1"/>
			<path class="st2" d="M574.2,82.4c-0.2,3.2-2.8,5.6-6,5.4c-3.2-0.2-5.6-2.8-5.4-6c0.2-3.2,2.8-5.6,6-5.4
				C571.9,76.6,574.3,79.2,574.2,82.4z"/>
		</g>
	</g>
	<g>
		<g>
			<g>
				<g>
					<path class="st3" d="M483.7,74.3c0.2,0.7,11,15.3,10.7,14.9l7.6-8.9l-12.7-9.8L483.7,74.3z"/>
					<polygon class="st4" points="491.2,69.9 489.7,82.8 483.4,73.9 					"/>
					<g>
						<defs>
							<circle id="XMLID_4_" cx="484.7" cy="67.1" r="11.4"/>
						</defs>
						<use xlink:href="#XMLID_4_"  style="overflow:visible;fill:#EF9E7B;"/>
						<clipPath id="XMLID_3_">
							<use xlink:href="#XMLID_4_"  style="overflow:visible;"/>
						</clipPath>
						<path class="st5" d="M474.6,59.7c0,0,1.5,5.3,10.8,7.8l2.1,1c0,0,4.7,8.3,12.7,4.9c0,0,2.9-9.9-9-17.2
							C482.5,51.1,474.6,59.7,474.6,59.7z"/>
					</g>
					<path class="st3" d="M474.3,71.9l-0.4,2.7c-0.1,0.3,0.2,0.6,0.6,0.5l1.9-0.4L474.3,71.9z"/>
					<g>
						<path class="st3" d="M491.6,67.1c-0.1,2-1.8,3.6-3.8,3.5c-2-0.1-3.6-1.8-3.5-3.8c0.1-2,1.8-3.6,3.8-3.5
							C490.1,63.4,491.7,65.1,491.6,67.1z"/>
						<path class="st6" d="M486.5,68.2c0,0-0.2-2.3,2.3-2.8"/>
					</g>
					<path class="st7" d="M506,55.6c0.1,4.3-3.3,7.9-7.7,8c-4.3,0.1-7.9-3.3-8-7.7s3.3-7.9,7.7-8C502.3,47.9,505.9,51.3,506,55.6z"
						/>
					<g>
						<path class="st7" d="M476.4,69.5c0.1,0.4-0.1,0.7-0.4,0.9c-0.4,0.1-0.7-0.1-0.9-0.4c-0.1-0.4,0.1-0.7,0.4-0.9
							C475.9,69,476.3,69.2,476.4,69.5z"/>
						<path class="st6" d="M474.3,67.3c0,0,1-0.9,2.4-0.2"/>
						<path class="st6" d="M478.2,75.4c0,0,0-0.9,1.2-1"/>
					</g>
				</g>
				<g>
					<g>
						<g>
							<polygon class="st3" points="548.6,256.3 557.9,262.9 563.4,253 553.8,246.1 							"/>
							<g>
								<path class="st7" d="M554.9,263.8l8.8-12.4l13.1,8.9l-16.7,23.5c-0.8,1.1-2.5,0.4-2.4-0.9l2.1-15.6L554.9,263.8z"/>
								<line class="st8" x1="557.6" y1="282.5" x2="574.5" y2="258.7"/>
								<line class="st8" x1="558.5" y1="274.5" x2="560.9" y2="273.7"/>
								<line class="st8" x1="558.9" y1="271.5" x2="561.3" y2="270.6"/>
							</g>
						</g>
						<path class="st9" d="M519.8,140.5l-24.3,4.2c0,0-21.2,65.6,50.9,116.6c0,0,7.8-5.9,14.2-17.4
							C560.5,243.9,505.3,210.7,519.8,140.5"/>
					</g>
					<g>
						<g>
							<polygon class="st3" points="464.6,271.8 464.6,283.2 476.3,283.2 476.3,271.3 							"/>
							<g>
								<path class="st7" d="M462.5,282.1h15.2l0.3,15.9h-28.8c-1.3,0-1.8-1.8-0.7-2.5l13.9-7.4L462.5,282.1z"/>
								<line class="st8" x1="448.7" y1="295.2" x2="477.9" y2="295.2"/>
								<line class="st8" x1="455.8" y1="291.3" x2="457.8" y2="292.7"/>
								<line class="st8" x1="458.5" y1="289.8" x2="460.6" y2="291.3"/>
							</g>
						</g>
						<g>
							<path class="st10" d="M494.3,124.9l1,5c0,0-34,48.9-35.8,144.9c0,0,11.9,2.6,22.1,0c0,0-1.4-81.1,32.4-118.1
								c0,0,15.8-13.3,6.8-34.8L494.3,124.9z"/>
							<path class="st6" d="M459.7,267.9c0,0,10.6,1.4,21.9,0"/>
							<line class="st6" x1="495.5" y1="129.9" x2="522.5" y2="127.4"/>
						</g>
					</g>
				</g>
				<g>
					<g>
						<g>
							<defs>
								<path id="XMLID_1_" d="M479,129.4c-11.7,0.3-25.1-8.3-36.1-18.8c-3.2-3.1-1.5-4.7,1.6-7.9c3.1-3.2,8.2-3.4,11.5-0.3
									c8.4,8.1,16.8,11.6,24.8,10.6c14.9-1.9,25.4-18.5,25.5-18.6c2.4-3.8,7.4-5,11.2-2.6c3.8,2.4,5,7.3,2.6,11.1
									c-0.6,0.9-14.6,23.3-37.2,26.2C481.6,129.2,480.3,129.3,479,129.4z"/>
							</defs>
							<use xlink:href="#XMLID_1_"  style="overflow:visible;fill:#EF9E7B;"/>
							<clipPath id="XMLID_5_">
								<use xlink:href="#XMLID_1_"  style="overflow:visible;"/>
							</clipPath>
							<polygon class="st11" points="491.2,105.9 490.8,132.3 510.9,125.6 499,102 							"/>
						</g>
						<path class="st3" d="M456.3,105.5l-0.3-2.6l1.1,0.5l-3.6-7.1c-0.3-0.6-0.7-1.1-1.2-1.5c-1.2-0.9-2.2-0.5-3.1-0.6
							c-1.5-0.2-1,0.3-1,1.8l0,0c-1.6,0-4.8,0.7-6.5-6.1c-0.4-1.5-1.9-2.4-3.4-2c-2.2,0.6,1.6-0.5,1.5,0.5c0,0,0,0.1,0,0.1
							c-0.5-0.5-1.3-0.7-2-0.5c-0.9,0.2-1.6,1-1.7,1.9c0,0.1,0,0.2,0,0.4c-0.3-0.1-0.7-0.1-1.1,0c-0.9,0.2-1.6,1-1.7,1.9
							c0,0.3,0,0.5,0.1,0.8c0,0.1,0.1,0.2,0.1,0.3c0,0-0.1,0-0.1,0c-0.9,0.2-1,0.6-1.1,1.5c0,0.3,0,0.5,0.1,0.8
							c0.5,1.9,1,2.7,1.7,4.2l0,0c0,0,0,0,0,0.1c0.3,0.7,0.7,1.3,1.1,1.9c2.2,3.6,7.9,10.6,14.3,12.2
							C457.9,115.8,456.3,105.5,456.3,105.5z"/>
						<g>
							<path class="st12" d="M428.8,84.6l0,1.3c0,0.4,0.2,0.8,0.4,1.1l16,19.2c0.5,0.5,1.3,1.3,2,1.2l7-0.2c0.8,0,1.6-0.7,2-1.7l0,0
								l-21.1-20.3L428.8,84.6z"/>
							<path class="st7" d="M429,85.1l17.5,20.5c0.4,0.4,0.9,0.7,1.4,0.6l7.6-0.1c0.6,0,0.9-0.7,0.5-1.1l-17.5-20.3
								c-0.5-0.6-1.2-0.9-1.9-0.9l-7.2,0.1C428.9,84,428.6,84.7,429,85.1z"/>
							<path class="st13" d="M432.1,85.8l15.9,18.6c0.3,0.3,0.6,0.5,1,0.5l4.3-0.1c0.5,0,0.8-0.6,0.5-1l-15.5-18
								c-0.4-0.5-1-0.8-1.7-0.8l-4.1,0C432,85.1,431.8,85.5,432.1,85.8z"/>
						</g>
						<path class="st3" d="M450.8,94.2l-3.9-0.6c-1.6-0.2-2.9,1.4-2.3,2.9l0,0c0.2,0.5,0.6,0.9,1,1.1l6.9,3.4l-1-4.5L450.8,94.2z"/>
					</g>
					<g>
						<path class="st14" d="M491.6,89.8c0,0-2.6-2.8,2.1-8c5.4-6,8.4-4.1,11-2.9L491.6,89.8z"/>
						<path class="st15" d="M520.8,121.9c0,0-7.3-10.4-6.3-18.4c0.9-8.1,2.9-22.2-8.3-25.8c0,0-4.9,0-9.2,4.3
							c-3.7,3.2-12.6,12.2-7.8,21.8c0.6,1.2,1.2,2.1,1.8,2.8c0.4,5.1,1.5,11.2,3.4,18.3L520.8,121.9z"/>
						<polygon class="st16" points="508.1,102.3 514.6,122.6 524.5,121.5 505.7,92 						"/>
					</g>
					<g>
						<path class="st3" d="M530.8,159.9c0,0.4,0.1,0.7,0.2,1l-4.1,7.4c-0.5,1-0.4,2.2,0.4,3c1,1.1,2.8,1.1,3.8-0.1l0.8-0.9
							c1.2,1,2.7,3.5-0.6,10.1c-0.6,1.1-0.1,2.5,1,3c0.9,0.4,1.9,0.3,2.6-0.4c0,0,0.1-0.1,0.1-0.1c0.1,0.7,0.5,1.4,1.2,1.8
							c0.9,0.4,1.9,0.3,2.6-0.4c0.1-0.1,0.2-0.2,0.2-0.3c0.2,0.3,0.5,0.6,0.8,0.7c0.9,0.4,1.9,0.3,2.6-0.4c0.2-0.2,0.3-0.4,0.5-0.6
							c0-0.1,0.1-0.2,0.1-0.3c0,0,0.1,0,0.1,0.1c0.9,0.4,1.9,0.3,2.6-0.4c0.2-0.2,0.3-0.4,0.5-0.6c0.9-1.8,1.6-3.5,2-5.2l0,0
							c0,0,0,0,0-0.1c0.2-0.8,0.3-1.5,0.4-2.2c0.5-3.5,1.2-10.2-0.7-15.6c0.1-0.6,0.1-1.3,0-1.9c-3.8-30-16.8-52.8-26-65.7
							l-13.7,10.3C516,113.5,527.5,133.6,530.8,159.9z"/>
						<path class="st15" d="M512.2,80.2c-3.3-3.4-8.7-3.4-12.1-0.1c-3.4,3.3-3.4,8.7-0.1,12.1c0.1,0.1,3.5,3.6,8.1,10.1L521.8,92
							C516.6,84.8,512.7,80.7,512.2,80.2z"/>
						<line class="st6" x1="508.1" y1="102.3" x2="500" y2="92.2"/>
					</g>
				</g>
			</g>
			<g>
				<g>
					<line class="st17" x1="398.5" y1="51" x2="402.5" y2="52.8"/>
					<line class="st17" x1="408.8" y1="44.8" x2="408.8" y2="48.4"/>
					<line class="st17" x1="400.7" y1="43.1" x2="404.4" y2="48.9"/>
				</g>
				<g>
					<g>
						<path class="st18" d="M450,68.5h-41.2c-1.3,0-2.3-1-2.3-2.3V54.5c0-1.3,1-2.3,2.3-2.3H450c1.3,0,2.3,1,2.3,2.3v11.7
							C452.3,67.5,451.3,68.5,450,68.5z"/>
						<polygon class="st18" points="425,67 429.3,71.9 433.7,67 						"/>
					</g>
					<g>
						<line class="st19" x1="411.3" y1="58.1" x2="445.8" y2="58.1"/>
						<line class="st19" x1="411.3" y1="61.8" x2="430.3" y2="61.8"/>
					</g>
				</g>
			</g>
		</g>
		<line class="st17" x1="387" y1="298" x2="610.1" y2="298"/>
	</g>
</g>
<g id="DESIGNED_BY_FREEPIK">
</g>
</svg>
