<svg xmlns="http://www.w3.org/2000/svg" xmlns:xlink="http://www.w3.org/1999/xlink" height="994" width="557">
  <defs>
    <rect id="rect-1" opacity="1" x="64" y="42" width="429" height="866"/>
    <rect id="rect-2" opacity="1" x="64" y="42" width="429" height="866"/>
    <path id="path-3" opacity="1" fill-rule="evenodd" d="M130 42L427 42C463.426391616604 42 493 71.57360838339599 493 108L493 842C493 878.426391616604 463.426391616604 908 427 908L130 908C93.573608383396 908 64.00000000000001 878.426391616604 64 842L64 108C64 71.573608383396 93.57360838339599 42.000000000000014 130 42Z"/>
    <filter id="filter-4" filterUnits="userSpaceOnUse" x="-50%" y="-50%" width="200%" height="200%">
      <feOffset in="SourceAlpha" result="shadow-1-feOffset-shadow" dx="0" dy="22"/>
      <feGaussianBlur in="shadow-1-feOffset-shadow" result="shadow-1-feGaussianBlur-shadow" stdDeviation="32"/>
      <feColorMatrix in="shadow-1-feGaussianBlur-shadow" result="shadow-1-feColorMatrix-shadow" type="matrix" values="0 0 0 0 0  0 0 0 0 0  0 0 0 0 0  0 0 0 0.04 0"/>
      <feOffset in="SourceAlpha" result="shadow-2-feOffset-shadow" dx="0" dy="1"/>
      <feGaussianBlur in="shadow-2-feOffset-shadow" result="shadow-2-feGaussianBlur-shadow" stdDeviation="1.5"/>
      <feColorMatrix in="shadow-2-feGaussianBlur-shadow" result="shadow-2-feColorMatrix-shadow" type="matrix" values="0 0 0 0 0  0 0 0 0 0  0 0 0 0 0  0 0 0 0.08 0"/>
      <feOffset in="SourceAlpha" result="shadow-3-feOffset-shadow" dx="0" dy="12"/>
      <feGaussianBlur in="shadow-3-feOffset-shadow" result="shadow-3-feGaussianBlur-shadow" stdDeviation="22"/>
      <feColorMatrix in="shadow-3-feGaussianBlur-shadow" result="shadow-3-feColorMatrix-shadow" type="matrix" values="0 0 0 0 0  0 0 0 0 0  0 0 0 0 0  0 0 0 0 0"/>
      <feOffset in="SourceAlpha" result="shadow-4-feOffset-shadow" dx="0" dy="12"/>
      <feGaussianBlur in="shadow-4-feOffset-shadow" result="shadow-4-feGaussianBlur-shadow" stdDeviation="22"/>
      <feColorMatrix in="shadow-4-feGaussianBlur-shadow" result="shadow-4-feColorMatrix-shadow" type="matrix" values="0 0 0 0 0  0 0 0 0 0  0 0 0 0 0  0 0 0 0.5 0"/>
      <feMerge>
        <feMergeNode in="shadow-1-feColorMatrix-shadow"/>
        <feMergeNode in="shadow-2-feColorMatrix-shadow"/>
        <feMergeNode in="shadow-3-feColorMatrix-shadow"/>
        <feMergeNode in="shadow-4-feColorMatrix-shadow"/>
      </feMerge>
    </filter>
    <linearGradient id="linearGradient-5" x1="0.5" y1="0.5" x2="0.5" y2="1">
      <stop offset="0" stop-color="rgb(255,255,255)" stop-opacity="1"/>
      <stop offset="1" stop-color="rgb(250,251,252)" stop-opacity="1"/>
    </linearGradient>
    <filter id="filter-6" filterUnits="userSpaceOnUse" x="-50%" y="-50%" width="200%" height="200%">
      <feGaussianBlur in="SourceAlpha" result="innershadow-1-feGaussianBlur-innershadow" stdDeviation="10"/>
      <feOffset in="innershadow-1-feGaussianBlur-innershadow" result="innershadow-1-feOffset-innershadow" dx="0" dy="-8"/>
      <feComposite in="innershadow-1-feOffset-innershadow" in2="SourceAlpha" result="innershadow-1-feOffset-innershadow" operator="arithmetic" k2="-1" k3="1"/>
      <feColorMatrix in="innershadow-1-feOffset-innershadow" result="innershadow-1-feColorMatrix-innershadow" type="matrix" values="0 0 0 0 0  0 0 0 0 0  0 0 0 0 0  0 0 0 0.05 0"/>
    </filter>
    <path id="path-7" opacity="1" fill-rule="evenodd" d="M91 507L91 277L91 842C91 862.8161993199458 108.16480192342021 880 129 880L428 880C448.8351980765798 880 466 862.8161993199458 466 842L466 499L466 106C466 85.18380068005416 448.8351980765798 68 428 68L389 68C385.68629150101526 68 383 70.68629150101523 383 74L383 75C383.33226837060676 88.4447626842719 372.6042671684691 99.18463810930577 359 99L197 99C183.19764976443741 99.18463810930577 172.46964856230005 88.4447626842719 173 75L173 74C173 70.68629150101525 170.31370849898477 68 167 68L163 68L153 68L144 68C143.71565495207668 68.00000000000003 138.92332268370606 68.00000000000003 129 68C108.16480192341993 68.00000000000003 91 85.18380068005419 91 106L91 282"/>
    <mask id="mask-8" maskUnits="userSpaceOnUse" maskContentUnits="userSpaceOnUse">
      <rect opacity="1" x="0" y="0" width="557" height="994" fill="Black"/>
      <use xlink:href="#path-7" fill="White"/>
    </mask>
    <rect id="rect-9" opacity="1" x="81" y="57" width="395" height="845" rx="0" ry="0"/>
    <filter id="filter-10" filterUnits="userSpaceOnUse" x="-50%" y="-50%" width="200%" height="200%">
      <feOffset in="SourceAlpha" result="shadow-1-feOffset-shadow" dx="0" dy="15"/>
      <feGaussianBlur in="shadow-1-feOffset-shadow" result="shadow-1-feGaussianBlur-shadow" stdDeviation="30"/>
      <feColorMatrix in="shadow-1-feGaussianBlur-shadow" result="shadow-1-feColorMatrix-shadow" type="matrix" values="0 0 0 0 0.1843137254901961  0 0 0 0 0.17647058823529413  0 0 0 0 0.23921568627450981  0 0 0 0.0561028079710145 0"/>
    </filter>
    <mask id="mask-11" maskUnits="userSpaceOnUse" maskContentUnits="userSpaceOnUse">
      <rect opacity="1" x="0" y="0" width="557" height="994" fill="Black"/>
      <use xlink:href="#rect-9" fill="White"/>
    </mask>
    <path id="path-12" opacity="1" fill-rule="evenodd" d="M434.75 473.75L693.2 473.75C698.167235220446 473.75 702.2 477.782764779554 702.2 482.75L702.2 747.85C702.2 752.817235220446 698.167235220446 756.85 693.2 756.85L434.75 756.85C429.782764779554 756.85 425.75 752.817235220446 425.75 747.85L425.75 482.75C425.75 477.782764779554 429.782764779554 473.75 434.75 473.75Z"/>
    <filter id="filter-13" filterUnits="userSpaceOnUse" x="-50%" y="-50%" width="200%" height="200%">
      <feOffset in="SourceAlpha" result="shadow-1-feOffset-shadow" dx="0" dy="6"/>
      <feGaussianBlur in="shadow-1-feOffset-shadow" result="shadow-1-feGaussianBlur-shadow" stdDeviation="7"/>
      <feColorMatrix in="shadow-1-feGaussianBlur-shadow" result="shadow-1-feColorMatrix-shadow" type="matrix" values="0 0 0 0 0.7294117647058823  0 0 0 0 0.6941176470588235  0 0 0 0 0.9647058823529412  0 0 0 0.2088428442028986 0"/>
    </filter>
    <linearGradient id="linearGradient-14" x1="0.10230614244937897" y1="-0.07684443626748355" x2="0.10230614534883284" y2="1.0951077056805127">
      <stop offset="0" stop-color="rgb(111,104,255)" stop-opacity="1"/>
      <stop offset="1" stop-color="rgb(52,118,246)" stop-opacity="1"/>
    </linearGradient>
    <mask id="mask-15" maskUnits="userSpaceOnUse" maskContentUnits="userSpaceOnUse">
      <rect opacity="1" x="0" y="0" width="557" height="994" fill="Black"/>
      <use xlink:href="#path-12" fill="White"/>
    </mask>
    <linearGradient id="linearGradient-32" x1="1" y1="1" x2="0.30462367315606453" y2="0.1944211205012861">
      <stop offset="0" stop-color="rgb(104,99,253)" stop-opacity="1"/>
      <stop offset="1" stop-color="rgb(145,134,255)" stop-opacity="1"/>
    </linearGradient>
    <path id="path-33" opacity="1" fill-rule="evenodd" d="M431 469L696 469C701.51915024494 469 706 473.48084975506 706 479L706 750.65C706 756.16915024494 701.51915024494 760.65 696 760.65L431 760.65C425.48084975506 760.65 421 756.16915024494 421 750.65L421 479C421 473.48084975506 425.48084975506 469 431 469Z"/>
    <linearGradient id="linearGradient-34" x1="0" y1="0.5" x2="1.033873943307276" y2="0.5">
      <stop offset="0" stop-color="rgb(255,255,255)" stop-opacity="0"/>
      <stop offset="0.7837877190010539" stop-color="rgb(246,247,251)" stop-opacity="1"/>
      <stop offset="1" stop-color="rgb(246,247,251)" stop-opacity="1"/>
    </linearGradient>
    <mask id="mask-35" maskUnits="userSpaceOnUse" maskContentUnits="userSpaceOnUse">
      <rect opacity="1" x="0" y="0" width="557" height="994" fill="Black"/>
      <use xlink:href="#path-33" fill="White"/>
    </mask>
    <path id="path-43" opacity="1" fill-rule="evenodd" d="M228.5 791L328.5 791C341.47000307560904 791 352 801.529996924391 352 814.5L352 814.5C352 827.470003075609 341.47000307560904 838 328.5 838L228.5 838C215.529996924391 838 205 827.470003075609 205 814.5L205 814.5C205 801.529996924391 215.52999692439099 791 228.5 791Z"/>
    <filter id="filter-44" filterUnits="userSpaceOnUse" x="-50%" y="-50%" width="200%" height="200%">
      <feOffset in="SourceAlpha" result="shadow-1-feOffset-shadow" dx="0" dy="3"/>
      <feGaussianBlur in="shadow-1-feOffset-shadow" result="shadow-1-feGaussianBlur-shadow" stdDeviation="3.5"/>
      <feColorMatrix in="shadow-1-feGaussianBlur-shadow" result="shadow-1-feColorMatrix-shadow" type="matrix" values="0 0 0 0 0.41568627450980394  0 0 0 0 0.396078431372549  0 0 0 0 1  0 0 0 0.3800668025362319 0"/>
    </filter>
    <linearGradient id="linearGradient-45" x1="0" y1="-0.1439714429350696" x2="1.192239109861712" y2="1.8948821617090665">
      <stop offset="0" stop-color="rgb(83,114,232)" stop-opacity="1"/>
      <stop offset="1" stop-color="rgb(137,92,246)" stop-opacity="0.7154098731884058"/>
    </linearGradient>
    <path id="path-46" opacity="1" fill-rule="evenodd" d="M116 461L396 461C401.51915024494 461 406 465.48084975506 406 471L406 758C406 763.51915024494 401.51915024494 768 396 768L116 768C110.48084975506 768 106 763.51915024494 106 758L106 471C106 465.48084975506 110.48084975505999 461 116 461Z"/>
    <filter id="filter-47" filterUnits="userSpaceOnUse" x="-50%" y="-50%" width="200%" height="200%">
      <feOffset in="SourceAlpha" result="shadow-1-feOffset-shadow" dx="0" dy="6"/>
      <feGaussianBlur in="shadow-1-feOffset-shadow" result="shadow-1-feGaussianBlur-shadow" stdDeviation="7.5"/>
      <feColorMatrix in="shadow-1-feGaussianBlur-shadow" result="shadow-1-feColorMatrix-shadow" type="matrix" values="0 0 0 0 0.5450980392156862  0 0 0 0 0.5058823529411764  0 0 0 0 0.792156862745098  0 0 0 0.2479053442028986 0"/>
    </filter>
    <mask id="mask-48" maskUnits="userSpaceOnUse" maskContentUnits="userSpaceOnUse">
      <rect opacity="1" x="0" y="0" width="557" height="994" fill="Black"/>
      <use xlink:href="#path-46" fill="White"/>
    </mask>
    <linearGradient id="linearGradient-50" x1="1" y1="0.7572940043267372" x2="0" y2="0.24238935621274746">
      <stop offset="0" stop-color="rgb(255,160,56)" stop-opacity="1"/>
      <stop offset="1" stop-color="rgb(255,192,36)" stop-opacity="1"/>
    </linearGradient>
  </defs>
  <g opacity="1">
    <g opacity="1">
      <g opacity="1">
        <use xlink:href="#path-3" fill="black" filter="url(#filter-4)" stroke="black" stroke-opacity="0" stroke-width="0"/>
        <use xlink:href="#path-3" fill="url(#linearGradient-5)" fill-opacity="1"/>
        <use xlink:href="#path-3" fill="rgb(255,255,255)" fill-opacity="1"/>
        <use xlink:href="#path-3" fill="black" fill-opacity="1" filter="url(#filter-6)"/>
      </g>
      <g opacity="1">
        <use xlink:href="#path-7" fill="rgb(251,251,251)" fill-opacity="1"/>
      </g>
      <g mask="url(#mask-8)">
        <g opacity="1">
          <g opacity="1">
            <use xlink:href="#rect-9" fill="black" filter="url(#filter-10)" stroke="black" stroke-opacity="0" stroke-width="0"/>
            <use xlink:href="#rect-9" fill="rgb(248,249,251)" fill-opacity="1"/>
          </g>
          <g mask="url(#mask-11)">
            <g opacity="1">
              <g opacity="1">
                <use xlink:href="#path-12" fill="black" filter="url(#filter-13)" stroke="black" stroke-opacity="0" stroke-width="0"/>
                <use xlink:href="#path-12" fill="url(#linearGradient-14)" fill-opacity="1"/>
                <use xlink:href="#path-12" fill="rgb(255,255,255)" fill-opacity="1"/>
              </g>
              <g mask="url(#mask-15)">
                <g opacity="1">
                  <g opacity="1">
                    <path fill="rgb(60,88,191)" fill-opacity="1" opacity="1" fill-rule="evenodd" d="M464.09833333333336 524.2099059104161L467.04182539682546 507.6220447919427L471.6410317460318 507.6220447919427L468.78952380952387 524.2099059104161L464.09833333333336 524.2099059104161Z"/>
                  </g>
                  <g opacity="1">
                    <path fill="rgb(71,98,218)" fill-opacity="1" opacity="1" fill-rule="evenodd" d="M464.09833333333336 524.2099059104161L467.8696825396826 507.6220447919427L471.6410317460318 507.6220447919427L468.78952380952387 524.2099059104161L464.09833333333336 524.2099059104161Z"/>
                  </g>
                  <g opacity="1">
                    <path fill="rgb(60,88,191)" fill-opacity="1" opacity="1" fill-rule="evenodd" d="M485.4386507936508 507.80635435992576C484.5188095238095 507.4377352239597 483.0470634920635 507.0691160879936 481.20738095238096 507.0691160879936C476.60817460317463 507.0691160879936 473.29674603174607 509.3729856877816 473.29674603174607 512.6905579114763C473.29674603174607 515.1787370792473 475.5963492063492 516.4689040551285 477.43603174603174 517.2982971110522C479.2757142857143 518.1276901669759 479.82761904761907 518.680618870925 479.82761904761907 519.4178571428571C479.82761904761907 520.5237145507554 478.35587301587304 521.0766432547044 477.0680952380953 521.0766432547044C475.22841269841274 521.0766432547044 474.2165873015873 520.80017890273 472.65285714285716 520.1550954147892L472.0089682539683 519.8786310628147L471.3650793650794 523.656977206467C472.4688888888889 524.1177511264245 474.4925396825397 524.5785250463822 476.60817460317463 524.5785250463822C481.48333333333335 524.5785250463822 484.7027777777778 522.2746554465942 484.7027777777778 518.7727736549165C484.7027777777778 516.8375231910946 483.50698412698415 515.3630466472302 480.74746031746037 514.1650344553406C479.0917460317461 513.3356413994169 478.07992063492065 512.8748674794593 478.07992063492065 512.0454744235357C478.07992063492065 511.30823615160347 478.9077777777778 510.5709978796713 480.74746031746037 510.5709978796713C482.3111904761905 510.5709978796713 483.415 510.84746223164586 484.24285714285713 511.21608136761193L484.7027777777778 511.400390935595L485.4386507936508 507.80635435992576L485.4386507936508 507.80635435992576Z"/>
                  </g>
                  <g opacity="1">
                    <path fill="rgb(71,98,218)" fill-opacity="1" opacity="1" fill-rule="evenodd" d="M485.4386507936508 507.80635435992576C484.5188095238095 507.4377352239597 483.0470634920635 507.0691160879936 481.20738095238096 507.0691160879936C476.60817460317463 507.0691160879936 474.1246031746032 509.3729856877816 474.1246031746032 512.6905579114763C474.1246031746032 515.1787370792473 475.5963492063492 516.4689040551285 477.43603174603174 517.2982971110522C479.2757142857143 518.1276901669759 479.82761904761907 518.680618870925 479.82761904761907 519.4178571428571C479.82761904761907 520.5237145507554 478.35587301587304 521.0766432547044 477.0680952380953 521.0766432547044C475.22841269841274 521.0766432547044 474.2165873015873 520.80017890273 472.65285714285716 520.1550954147892L472.0089682539683 519.8786310628147L471.3650793650794 523.656977206467C472.4688888888889 524.1177511264245 474.4925396825397 524.5785250463822 476.60817460317463 524.5785250463822C481.48333333333335 524.5785250463822 484.7027777777778 522.2746554465942 484.7027777777778 518.7727736549165C484.7027777777778 516.8375231910946 483.50698412698415 515.3630466472302 480.74746031746037 514.1650344553406C479.0917460317461 513.3356413994169 478.07992063492065 512.8748674794593 478.07992063492065 512.0454744235357C478.07992063492065 511.30823615160347 478.9077777777778 510.5709978796713 480.74746031746037 510.5709978796713C482.3111904761905 510.5709978796713 483.415 510.84746223164586 484.24285714285713 511.21608136761193L484.7027777777778 511.400390935595L485.4386507936508 507.80635435992576L485.4386507936508 507.80635435992576Z"/>
                  </g>
                  <g opacity="1">
                    <path fill="rgb(60,88,191)" fill-opacity="1" opacity="1" fill-rule="evenodd" d="M490.95770263671875 508.820068359375C491.4176025390625 507.7142333984375 492.2454833984375 507.6220703125 493.34930419921875 507.6220703125L496.93670654296875 507.6220703125L500.79998779296875 524.2099609375L496.384765625 524.2099609375L495.8328857421875 521.4453125L489.94586181640625 521.4453125L489.02606201171875 524.2099609375L484.05889892578125 524.2099609375L490.95770263671875 508.820068359375ZM493.07330322265625 513.7964477539062C493.07330322265625 513.7964477539062 491.50958251953125 517.8512573242188 491.233642578125 518.6806030273438L491.233642578125 518.7727661132812L495.09698486328125 518.7727661132812C494.91302490234375 517.8512573242188 493.9931640625 513.7042846679688 493.9931640625 513.7042846679688L493.71722412109375 512.1376342773438C493.4412841796875 512.78271484375 493.07330322265625 513.7964477539062 493.07330322265625 513.7964477539062Z"/>
                  </g>
                  <g opacity="1">
                    <path fill="rgb(71,98,218)" fill-opacity="1" opacity="1" fill-rule="evenodd" d="M492.0615234375 508.820068359375C492.52142333984375 507.7142333984375 493.34930419921875 507.6220703125 494.453125 507.6220703125L496.93670654296875 507.6220703125L500.79998779296875 524.2099609375L496.384765625 524.2099609375L495.8328857421875 521.4453125L489.94586181640625 521.4453125L489.02606201171875 524.2099609375L484.05889892578125 524.2099609375L492.0615234375 508.820068359375ZM493.07330322265625 513.7964477539062C493.07330322265625 513.7964477539062 491.6015625 517.7590942382812 491.233642578125 518.6806030273438L491.233642578125 518.7727661132812L495.09698486328125 518.7727661132812C494.91302490234375 517.8512573242188 493.9931640625 513.7042846679688 493.9931640625 513.7042846679688L493.71722412109375 512.1376342773438C493.4412841796875 512.78271484375 493.07330322265625 513.7964477539062 493.07330322265625 513.7964477539062Z"/>
                  </g>
                  <g opacity="1">
                    <path fill="rgb(60,88,191)" fill-opacity="1" opacity="1" fill-rule="evenodd" d="M455.63579365079363 519.233547574874L455.175873015873 516.8375231910945C454.34801587301587 514.072879671349 451.68047619047616 511.0317717996289 448.7369841269841 509.5572952557646L452.87626984126985 524.3020606944076L457.8434126984127 524.3020606944076L465.29412698412693 507.71419957593423L460.3269841269841 507.71419957593423L455.63579365079363 519.233547574874Z"/>
                  </g>
                  <g opacity="1">
                    <path fill="rgb(71,98,218)" fill-opacity="1" opacity="1" fill-rule="evenodd" d="M455.63579365079363 519.233547574874L455.175873015873 516.8375231910945C454.34801587301587 514.072879671349 451.68047619047616 511.0317717996289 448.7369841269841 509.5572952557646L452.87626984126985 524.3020606944076L457.8434126984127 524.3020606944076L465.29412698412693 507.71419957593423L461.2468253968254 507.71419957593423L455.63579365079363 519.233547574874Z"/>
                  </g>
                  <g opacity="1">
                    <path fill="rgb(255,188,0)" fill-opacity="1" opacity="1" fill-rule="evenodd" d="M442.85 507.6220447919427L443.6778571428572 507.80635435992576C449.5648412698413 509.1886761197985 453.6121428571429 512.6905579114763 455.17587301587304 516.8375231910945L453.52015873015876 509.00436655181545C453.24420634920637 507.89850914391724 452.4163492063492 507.6220447919427 451.4045238095238 507.6220447919427L442.85 507.6220447919427L442.85 507.6220447919427Z"/>
                  </g>
                  <g opacity="1">
                    <path fill="rgb(247,152,29)" fill-opacity="1" opacity="1" fill-rule="evenodd" d="M442.85 507.6220447919427L442.85 507.6220447919427C448.73698412698417 509.00436655181545 453.6121428571429 512.5984031274847 455.17587301587304 516.745368407103L453.6121428571429 510.2023787437052C453.3361904761905 509.096521335807 452.4163492063492 508.4514378478664 451.4045238095238 508.4514378478664L442.85 507.6220447919427Z"/>
                  </g>
                  <g opacity="1">
                    <path fill="rgb(237,124,0)" fill-opacity="1" opacity="1" fill-rule="evenodd" d="M442.85 507.6220447919427L442.85 507.6220447919427C448.73698412698417 509.00436655181545 453.6121428571429 512.5984031274847 455.17587301587304 516.745368407103L454.07206349206353 513.1513318314338C453.79611111111114 512.0454744235356 453.4281746031746 510.9396170156374 452.14039682539686 510.4788430956798L442.85 507.6220447919427Z"/>
                  </g>
                  <g opacity="1">
                    <g opacity="1">
                      <path fill="rgb(48,66,183)" fill-opacity="1" opacity="1" fill-rule="evenodd" d="M460.23499999999996 518.680618870925L457.10753968253965 515.5473562152133L455.63579365079363 519.0492380068911L455.2678571428571 516.7453684071031C454.44 513.9807248873575 451.7724603174603 510.9396170156374 448.82896825396824 509.4651404717731L452.968253968254 524.2099059104161L457.93539682539677 524.2099059104161L460.23499999999996 518.680618870925Z"/>
                    </g>
                    <g opacity="1">
                      <path fill="rgb(48,66,183)" fill-opacity="1" opacity="1" fill-rule="evenodd" d="M468.7895238095237 524.2099059104162L464.8342063492063 520.1550954147893L464.09833333333324 524.2099059104162L468.7895238095237 524.2099059104162Z"/>
                    </g>
                    <g opacity="1">
                      <path fill="rgb(48,66,183)" fill-opacity="1" opacity="1" fill-rule="evenodd" d="M479.3676984126984 518.496309302942L479.3676984126984 518.496309302942C479.73563492063494 518.8649284389081 479.91960317460314 519.1413927908826 479.82761904761907 519.5100119268487C479.82761904761907 520.6158693347469 478.355873015873 521.1687980386961 477.0680952380952 521.1687980386961C475.2284126984127 521.1687980386961 474.2165873015873 520.8923336867215 472.65285714285716 520.2472501987809L472.0089682539683 519.9707858468063L471.3650793650794 523.7491319904585C472.4688888888889 524.2099059104162 474.4925396825397 524.6706798303737 476.60817460317463 524.6706798303737C479.5516666666667 524.6706798303737 481.94325396825394 523.84128677445 483.32301587301583 522.3668102305858L479.3676984126984 518.496309302942Z"/>
                    </g>
                    <g opacity="1">
                      <path fill="rgb(48,66,183)" fill-opacity="1" opacity="1" fill-rule="evenodd" d="M484.70277777777767 524.2099059104162L489.02603174603166 524.2099059104162L489.9458730158729 521.4452623906706L495.83285714285705 521.4452623906706L496.3847619047618 524.2099059104162L500.7999999999999 524.2099059104162L499.23626984126975 517.4826066790353L493.7172222222221 512.1376292075272L493.9931746031745 513.6121057513915C493.9931746031745 513.6121057513915 494.91301587301575 517.7590710310099 495.096984126984 518.6806188709251L491.23365079365067 518.6806188709251C491.6015873015872 517.7590710310099 493.0733333333332 513.7964153193745 493.0733333333332 513.7964153193745C493.0733333333332 513.7964153193745 493.44126984126973 512.7827126954678 493.7172222222221 512.1376292075272"/>
                    </g>
                  </g>
                </g>
                <g transform="translate(563.0109272277248, 717.5236737699843) rotate(-270.0000965423251) translate(-563.0109272277248, -717.5236737699843)" opacity="1">
                  <path fill="url(#linearGradient-32)" fill-opacity="1" opacity="1" fill-rule="evenodd" d="M559.2835007017818 862.7603602626143C559.2835007017818 862.7603602626143 574.9795533064353 825.4879224669476 574.9795533064353 768.0187739557699C574.9795533064353 679.5163833773848 523.2248972371428 572.2869872773541 523.2248972371428 572.2869872773541L602.7969572183066 572.2869872773541L602.7969572183067 862.7603602626143L559.2835007017818 862.7603602626143Z"/>
                </g>
                <g opacity="1">
                  <text font-size="0" transform="translate(446.65, 510.65)">
                    <tspan font-size="68.39999999999999" font-family="Avenir" font-weight="800" style="white-space: pre;text-transform: none" fill="rgb(250,250,254)" x="0" y="68">Visa Card</tspan>
                  </text>
                </g>
                <g opacity="1">
                  <text font-size="0" transform="translate(446.65, 537.4)">
                    <tspan font-size="19" font-family="Avenir" font-weight="500" style="white-space: pre;text-transform: none" fill="rgb(97,95,108)" letter-spacing="0.1727272778749466" x="0" y="18">Visa Card</tspan>
                  </text>
                </g>
                <g opacity="1">
                  <use xlink:href="#path-33" fill="url(#linearGradient-34)" fill-opacity="1"/>
                </g>
                <g mask="url(#mask-35)"/>
              </g>
            </g>
          </g>
        </g>
        <g opacity="1">
          <path fill="rgb(231,229,238)" fill-opacity="1" opacity="1" fill-rule="evenodd" d="M232.5 864L325.5 864C327.431702585729 864 329 865.568297414271 329 867.5L329 867.5C329 869.431702585729 327.431702585729 871 325.5 871L232.5 871C230.568297414271 871 229 869.431702585729 229 867.5L229 867.5C229 865.568297414271 230.568297414271 864 232.5 864Z"/>
        </g>
        <g transform="translate(128, 85)" opacity="1">
          <g transform="translate(299, 4)" opacity="1">
            <g opacity="1">
              <path fill="rgb(30,29,34)" fill-opacity="1" opacity="1" fill-rule="evenodd" d="M20.5 0L2 0C0.8961699604988098 0 0 0.8961699604988098 0 2L0 7.5C0 8.603830337524414 0.8961699604988098 9.5 2 9.5L20.5 9.5C21.603830337524414 9.5 22.5 8.603830337524414 22.5 7.5L22.5 2C22.5 0.8961699604988098 21.603830337524414 0 20.5 0ZM1.5 0.5L21 0.5C21.55191421508789 0.5 22 0.9480849504470825 22 1.5L22 8C22 8.551915168762207 21.55191421508789 9 21 9L1.5 9C0.9480849504470825 9 0.5 8.551915168762207 0.5 8L0.5 1.5C0.5 0.9480849504470825 0.9480849504470825 0.5 1.5 0.5ZM20.5 1L2 1C1.4480849504470825 1 1 1.4480849504470825 1 2L1 7.5C1 8.051915168762207 1.4480849504470825 8.5 2 8.5L20.5 8.5C21.05191421508789 8.5 21.5 8.051915168762207 21.5 7.5L21.5 2C21.5 1.4480849504470825 21.05191421508789 1 20.5 1ZM23.5 3L23 3L23 6.5L23.5 6.5C24.052284240722656 6.5 24.5 6.0522847175598145 24.5 5.5L24.5 4C24.5 3.4477152824401855 24.052284240722656 3 23.5 3Z"/>
            </g>
          </g>
          <g opacity="1">
            <path fill="rgb(30,29,34)" fill-opacity="1" opacity="1" fill-rule="evenodd" d="M285.94976806640625 3C289.0904235839844 3 291.9239807128906 4.273709774017334 293.92999267578125 6.3169684410095215L292.59661865234375 7.612400054931641C290.93255615234375 5.898679256439209 288.5701599121094 4.828553199768066 285.94976806640625 4.828553199768066C283.3462219238281 4.828553199768066 280.99737548828125 5.884943008422852 279.3351135253906 7.579378128051758L278 6.286046028137207C280.0041809082031 4.260867118835449 282.824951171875 3 285.94976806640625 3ZM291.262939453125 8.908121109008789C289.94110107421875 7.523808479309082 288.0499267578125 6.657106399536133 285.94976806640625 6.657106399536133C283.8674621582031 6.657106399536133 281.9906311035156 7.509119987487793 280.6704406738281 8.872893333435059L282.0061340332031 10.166784286499023C282.98388671875 9.133504867553711 284.38873291015625 8.4856595993042 285.94976806640625 8.4856595993042C287.5296630859375 8.4856595993042 288.9495849609375 9.14926815032959 289.92864990234375 10.204439163208008L291.262939453125 8.908121109008789ZM288.59271240234375 11.502336502075195C287.9579162597656 10.77561092376709 287.00946044921875 10.314212799072266 285.9497375488281 10.314212799072266C284.9099426269531 10.314212799072266 283.97723388671875 10.758441925048828 283.3428649902344 11.461669921875L285.99261474609375 14.028461456298828L288.59271240234375 11.502336502075195Z"/>
          </g>
          <g opacity="1">
            <text font-size="0" transform="translate(0.5, -0.5)">
              <tspan font-size="14" font-family="Arial" font-weight="400" style="white-space: pre;text-transform: none" fill="rgb(30,29,34)" letter-spacing="-0.5600001215934753" x="0" y="13">9:41</tspan>
            </text>
          </g>
          <g transform="translate(255, 2)" opacity="1">
            <g opacity="1">
              <path fill="rgb(30,29,34)" fill-opacity="1" opacity="1" fill-rule="evenodd" d="M1.5517241379310347 7.448275862068963L1.5517241379310347 7.448275862068963C2.4081440035251727 7.448275862068963 3.1034482758620694 8.143580134405859 3.1034482758620694 8.999999999999996L3.1034482758620694 10.862068965517238C3.1034482758620694 11.718488831111376 2.4081440035251727 12.413793103448274 1.5517241379310345 12.413793103448274L1.5517241379310347 12.413793103448274C0.6953042723368968 12.413793103448274 2.220446049250313e-16 11.718488831111376 0 10.862068965517238L0 8.999999999999996C0 8.143580134405859 0.6953042723368963 7.448275862068963 1.5517241379310345 7.448275862068963Z"/>
            </g>
            <g opacity="1">
              <path fill="rgb(30,29,34)" fill-opacity="1" opacity="1" fill-rule="evenodd" d="M6.517241379310343 4.965517241379306L6.517241379310343 4.965517241379306C7.373661244904483 4.965517241379306 8.068965517241379 5.660821513716203 8.068965517241379 6.517241379310342L8.068965517241379 10.862068965517238C8.068965504479728 11.718488854233868 7.37366122178199 12.413793116209924 6.517241356187852 12.413793103448274L6.517241379310343 12.413793103448274C5.660821513716205 12.413793103448274 4.965517241379308 11.718488831111378 4.965517241379308 10.862068965517238L4.965517241379308 6.517241379310342C4.965517241379308 5.660821513716203 5.660821513716205 4.965517241379306 6.517241379310343 4.965517241379306Z"/>
            </g>
            <g opacity="1">
              <path fill="rgb(30,29,34)" fill-opacity="1" opacity="1" fill-rule="evenodd" d="M11.48275862068965 2.482758620689653L11.48275862068965 2.482758620689653C12.339178486283787 2.482758620689653 13.034482758620683 3.1780628930265493 13.034482758620683 4.034482758620687L13.034482758620683 10.862068965517244C13.034482745859034 11.71848885423387 12.339178463161296 12.413793116209927 11.482758597567159 12.413793103448276L11.48275862068965 12.413793103448278C10.626338755095512 12.413793103448276 9.931034482758616 11.71848883111138 9.931034482758616 10.862068965517242L9.931034482758616 4.034482758620687C9.931034469996964 3.178062916149041 10.62633873197302 2.4827586334513034 11.482758597567157 2.482758620689653Z"/>
            </g>
            <g opacity="1">
              <path fill="rgb(30,29,34)" fill-opacity="1" opacity="1" fill-rule="evenodd" d="M16.448275862068968 0L16.448275862068964 0C17.304695727663105 0 18 0.6953042723368972 18 1.5517241379310358L18 10.862068965517235C17.99999998723835 11.718488854233865 17.304695704540613 12.413793116209922 16.448275838946476 12.41379310344827L16.448275862068968 12.41379310344827C15.591855996474827 12.41379310344827 14.89655172413793 11.718488831111374 14.89655172413793 10.862068965517235L14.89655172413793 1.5517241379310358C14.89655172413793 0.6953042723368973 15.591855996474827 2.220446049250313e-16 16.448275862068968 0Z"/>
            </g>
          </g>
        </g>
      </g>
    </g>
    <g opacity="1">
      <g opacity="1">
        <g opacity="1">
          <use xlink:href="#path-43" fill="black" filter="url(#filter-44)" stroke="black" stroke-opacity="0" stroke-width="0"/>
          <use xlink:href="#path-43" fill="rgb(92,80,248)" fill-opacity="1"/>
          <use xlink:href="#path-43" fill="url(#linearGradient-45)" fill-opacity="1"/>
        </g>
        <g opacity="1">
          <text font-size="0" transform="translate(241, 802)">
            <tspan font-size="18" font-family="Avenir" font-weight="800" style="white-space: pre;text-transform: none" fill="rgb(255,255,255)" x="0" y="17">Pay Now</tspan>
          </text>
        </g>
      </g>
      <g opacity="1">
        <g opacity="1">
          <use xlink:href="#path-46" fill="black" filter="url(#filter-47)" stroke="black" stroke-opacity="0" stroke-width="0"/>
          <use xlink:href="#path-46" fill="rgb(255,255,255)" fill-opacity="1"/>
        </g>
        <g mask="url(#mask-48)">
          <g transform="translate(255.48518655549972, 732.0775513368254) rotate(-270.0000965423251) translate(-255.48518655549972, -732.0775513368254)" opacity="1">
            <path fill="url(#linearGradient-50)" fill-opacity="1" opacity="1" fill-rule="evenodd" d="M251.56157968608608 884.9582739606466C251.56157968608608 884.9582739606466 268.0837403225635 845.7241289125762 268.0837403225634 785.2302883744945C268.08374032256336 692.0698772393524 213.60515498646612 579.1968287130043 213.60515498646612 579.1968287130043L297.36521812453327 579.1968287130043L297.3652181245333 884.9582739606466L251.56157968608608 884.9582739606466Z"/>
          </g>
          <g opacity="1">
            <g opacity="1">
              <ellipse fill="rgb(185,185,207)" fill-opacity="1" opacity="1" rx="2" ry="2" cx="376" cy="499"/>
            </g>
            <g opacity="1">
              <ellipse fill="rgb(185,185,207)" fill-opacity="1" opacity="1" rx="2" ry="2" cx="376" cy="507"/>
            </g>
            <g opacity="1">
              <ellipse fill="rgb(185,185,207)" fill-opacity="1" opacity="1" rx="2" ry="2" cx="376" cy="515"/>
            </g>
          </g>
          <g opacity="1">
            <text font-size="0" transform="translate(133, 670)">
              <tspan font-size="14" font-family="Avenir" font-weight="500" style="white-space: pre;text-transform: none" fill="rgb(184,184,204)" letter-spacing="0.12727272510528564" x="0" y="14">Exp Date</tspan>
            </text>
          </g>
          <g opacity="1">
            <text font-size="0" transform="translate(133, 695)">
              <tspan font-size="16" font-family="Avenir" font-weight="500" style="white-space: pre;text-transform: none" fill="rgb(56,62,84)" letter-spacing="0.145454540848732" x="0" y="15">10/20</tspan>
            </text>
          </g>
          <g opacity="1">
            <text font-size="0" transform="translate(133, 524)">
              <tspan font-size="20" font-family="Avenir" font-weight="500" style="white-space: pre;text-transform: none" fill="rgb(97,95,108)" letter-spacing="0.1818181872367859" x="0" y="20">MasterCard</tspan>
            </text>
          </g>
          <g opacity="1">
            <g opacity="1">
              <path fill="rgb(255,182,0)" fill-opacity="1" opacity="1" fill-rule="evenodd" d="M170 507.99999999999994C170 514.0210526315789 165.06666666666666 518.9421052631578 158.9 518.9421052631578C152.7920634920635 518.9421052631578 147.8 514.0210526315789 147.8 507.99999999999994L147.8 507.99999999999994C147.8 501.978947368421 152.73333333333335 497.05789473684206 158.84126984126985 497.05789473684206C165.06666666666666 497.05789473684206 170 501.978947368421 170 507.99999999999994L170 507.99999999999994Z"/>
            </g>
            <g opacity="1">
              <path fill="rgb(247,152,29)" fill-opacity="1" opacity="1" fill-rule="evenodd" d="M158.9 497.05789473684206C165.0079365079365 497.05789473684206 170 501.978947368421 170 507.99999999999994L170 507.99999999999994C170 514.0210526315789 165.06666666666666 518.9421052631578 158.9 518.9421052631578C152.7920634920635 518.9421052631578 147.8 514.0210526315789 147.8 507.99999999999994"/>
            </g>
            <g opacity="1">
              <path fill="rgb(255,133,0)" fill-opacity="1" opacity="1" fill-rule="evenodd" d="M158.89999999999998 497.05789473684206C165.00793650793648 497.05789473684206 169.99999999999997 501.978947368421 169.99999999999997 507.99999999999994L169.99999999999997 507.99999999999994C169.99999999999997 514.0210526315789 165.06666666666663 518.9421052631578 158.89999999999998 518.9421052631578"/>
            </g>
            <g opacity="1">
              <path fill="rgb(255,80,80)" fill-opacity="1" opacity="1" fill-rule="evenodd" d="M143.98253968253968 497.05789473684206C137.93333333333334 497.1157894736842 133 501.978947368421 133 507.99999999999994C133 514.0210526315789 137.93333333333334 518.9421052631578 144.1 518.9421052631578C146.9777777777778 518.9421052631578 149.56190476190477 517.8421052631578 151.55873015873016 516.1052631578947L151.55873015873016 516.1052631578947L151.55873015873016 516.1052631578947C151.96984126984128 515.7578947368421 152.32222222222222 515.3526315789474 152.6746031746032 514.9473684210526L150.384126984127 514.9473684210526C150.09047619047618 514.5999999999999 149.7968253968254 514.1947368421052 149.56190476190477 513.8473684210526L153.4968253968254 513.8473684210526C153.73174603174604 513.5 153.96666666666667 513.0947368421052 154.14285714285714 512.6894736842105L148.91587301587302 512.6894736842105C148.73968253968255 512.3421052631578 148.56349206349208 511.9368421052631 148.44603174603176 511.53157894736836L154.55396825396826 511.53157894736836C154.9063492063492 510.4315789473684 155.14126984126986 509.27368421052626 155.14126984126986 508.05789473684206C155.14126984126986 507.24736842105256 155.02380952380952 506.4947368421052 154.9063492063492 505.74210526315784L148.0936507936508 505.74210526315784C148.15238095238095 505.3368421052631 148.26984126984127 504.98947368421045 148.38730158730158 504.58421052631576L154.4952380952381 504.58421052631576C154.3777777777778 504.178947368421 154.20158730158732 503.77368421052626 154.02539682539683 503.4263157894736L148.85714285714286 503.4263157894736C149.03333333333333 503.0210526315789 149.26825396825396 502.6736842105263 149.5031746031746 502.26842105263154L153.43809523809523 502.26842105263154C153.2031746031746 501.8631578947368 152.90952380952382 501.45789473684204 152.55714285714285 501.1105263157894L150.384126984127 501.1105263157894C150.73650793650793 500.7052631578947 151.0888888888889 500.35789473684207 151.5 500.01052631578943C149.56190476190477 498.21578947368414 146.91904761904763 497.1736842105263 144.04126984126984 497.1736842105263C144.04126984126984 497.05789473684206 144.04126984126984 497.05789473684206 143.98253968253968 497.05789473684206Z"/>
            </g>
            <g opacity="1">
              <path fill="rgb(229,40,54)" fill-opacity="1" opacity="1" fill-rule="evenodd" d="M133 507.99999999999994C133 514.0210526315789 137.93333333333334 518.9421052631578 144.1 518.9421052631578C146.9777777777778 518.9421052631578 149.56190476190477 517.8421052631579 151.55873015873016 516.1052631578947L151.55873015873016 516.1052631578947L151.55873015873016 516.1052631578947C151.96984126984128 515.7578947368421 152.32222222222222 515.3526315789474 152.6746031746032 514.9473684210526L150.384126984127 514.9473684210526C150.09047619047618 514.5999999999999 149.7968253968254 514.1947368421053 149.56190476190477 513.8473684210526L153.4968253968254 513.8473684210526C153.73174603174604 513.5 153.96666666666667 513.0947368421052 154.14285714285714 512.6894736842105L148.91587301587302 512.6894736842105C148.73968253968255 512.3421052631579 148.56349206349208 511.9368421052631 148.44603174603176 511.5315789473684L154.55396825396826 511.5315789473684C154.9063492063492 510.4315789473684 155.14126984126986 509.2736842105263 155.14126984126986 508.05789473684206C155.14126984126986 507.2473684210526 155.02380952380952 506.4947368421052 154.9063492063492 505.74210526315784L148.0936507936508 505.74210526315784C148.15238095238095 505.33684210526314 148.26984126984127 504.9894736842105 148.38730158730158 504.58421052631576L154.4952380952381 504.58421052631576C154.3777777777778 504.178947368421 154.20158730158732 503.7736842105263 154.02539682539683 503.4263157894737L148.85714285714286 503.4263157894737C149.03333333333333 503.0210526315789 149.26825396825396 502.6736842105263 149.5031746031746 502.26842105263154L153.43809523809523 502.26842105263154C153.2031746031746 501.8631578947368 152.90952380952382 501.4578947368421 152.55714285714285 501.11052631578946L150.384126984127 501.11052631578946C150.73650793650793 500.7052631578947 151.0888888888889 500.35789473684207 151.5 500.01052631578943C149.56190476190477 498.2157894736842 146.91904761904763 497.1736842105263 144.04126984126984 497.1736842105263L143.98253968253968 497.1736842105263"/>
            </g>
            <g opacity="1">
              <path fill="rgb(203,32,38)" fill-opacity="1" opacity="1" fill-rule="evenodd" d="M144.10000000000002 518.9421052631578C146.9777777777778 518.9421052631578 149.56190476190477 517.8421052631579 151.55873015873019 516.1052631578947L151.55873015873019 516.1052631578947L151.55873015873019 516.1052631578947C151.96984126984128 515.7578947368421 152.32222222222225 515.3526315789474 152.6746031746032 514.9473684210526L150.38412698412702 514.9473684210526C150.0904761904762 514.5999999999999 149.79682539682543 514.1947368421053 149.5619047619048 513.8473684210526L153.49682539682541 513.8473684210526C153.73174603174607 513.5 153.9666666666667 513.0947368421052 154.14285714285717 512.6894736842105L148.91587301587305 512.6894736842105C148.73968253968258 512.3421052631579 148.5634920634921 511.9368421052631 148.44603174603176 511.5315789473684L154.5539682539683 511.5315789473684C154.90634920634923 510.4315789473684 155.14126984126986 509.2736842105263 155.14126984126986 508.05789473684206C155.14126984126986 507.2473684210526 155.02380952380955 506.4947368421052 154.90634920634923 505.74210526315784L148.09365079365082 505.74210526315784C148.15238095238098 505.33684210526314 148.2698412698413 504.9894736842105 148.3873015873016 504.58421052631576L154.4952380952381 504.58421052631576C154.3777777777778 504.178947368421 154.20158730158732 503.7736842105263 154.02539682539685 503.4263157894737L148.8571428571429 503.4263157894737C149.03333333333336 503.0210526315789 149.268253968254 502.6736842105263 149.5031746031746 502.26842105263154L153.43809523809526 502.26842105263154C153.20317460317463 501.8631578947368 152.90952380952385 501.4578947368421 152.55714285714288 501.11052631578946L150.38412698412702 501.11052631578946C150.73650793650796 500.7052631578947 151.0888888888889 500.35789473684207 151.50000000000003 500.01052631578943C149.5619047619048 498.2157894736842 146.91904761904763 497.1736842105263 144.04126984126987 497.1736842105263L143.9825396825397 497.1736842105263"/>
            </g>
            <g opacity="1">
              <g opacity="1">
                <path fill="rgb(255,255,255)" fill-opacity="1" opacity="1" fill-rule="evenodd" d="M148.0349206349207 510.778947368421L148.21111111111117 509.7947368421052C148.152380952381 509.7947368421052 148.0349206349207 509.8526315789473 147.91746031746038 509.8526315789473C147.50634920634926 509.8526315789473 147.4476190476191 509.6210526315789 147.50634920634926 509.50526315789466L147.85873015873022 507.47894736842096L148.50476190476198 507.47894736842096L148.68095238095245 506.378947368421L148.09365079365085 506.378947368421L148.21111111111117 505.6842105263157L147.036507936508 505.6842105263157C147.036507936508 505.6842105263157 146.3317460317461 509.50526315789466 146.3317460317461 509.9684210526315C146.3317460317461 510.6631578947368 146.7428571428572 510.9526315789473 147.27142857142863 510.9526315789473C147.62380952380957 510.9526315789473 147.91746031746038 510.8368421052631 148.0349206349207 510.778947368421Z"/>
              </g>
              <g opacity="1">
                <path fill="rgb(255,255,255)" fill-opacity="1" opacity="1" fill-rule="evenodd" d="M150.5015869140625 510.95263671875C149.56192016601562 510.95263671875 148.446044921875 510.54736328125 148.446044921875 508.92633056640625C148.446044921875 507.47894287109375 149.32699584960938 506.20526123046875 150.56033325195312 506.321044921875C151.85238647460938 506.321044921875 152.26351928710938 507.24737548828125 152.26351928710938 508C152.26351928710938 508.28948974609375 152.08731079101562 509.0421142578125 152.08731079101562 509.0421142578125L149.67938232421875 509.0421142578125C149.67938232421875 509.0421142578125 149.4444580078125 509.96844482421875 150.73651123046875 509.96844482421875C151.32382202148438 509.96844482421875 151.9698486328125 509.678955078125 151.9698486328125 509.678955078125L151.73492431640625 510.7789306640625C151.73492431640625 510.7789306640625 151.38253784179688 510.95263671875 150.5015869140625 510.95263671875ZM151.03192138671875 508.0318603515625C151.0439453125 507.8856201171875 151.09649658203125 507.24737548828125 150.5015869140625 507.24737548828125C149.85556030273438 507.24737548828125 149.73809814453125 508 149.73809814453125 508.05792236328125L151.0301513671875 508.05792236328125C151.0301513671875 508.0533447265625 151.0308837890625 508.04443359375 151.03192138671875 508.0318603515625Z"/>
              </g>
              <g opacity="1">
                <path fill="rgb(255,255,255)" fill-opacity="1" opacity="1" fill-rule="evenodd" d="M157.96031746031753 510.778947368421L158.19523809523815 509.5052631578946C158.19523809523815 509.5052631578946 157.60793650793659 509.7947368421052 157.19682539682546 509.7947368421052C156.37460317460324 509.7947368421052 156.0222222222223 509.157894736842 156.0222222222223 508.46315789473675C156.0222222222223 507.0736842105262 156.7269841269842 506.3210526315788 157.54920634920643 506.3210526315788C158.136507936508 506.3210526315788 158.60634920634928 506.66842105263146 158.60634920634928 506.66842105263146L158.78253968253975 505.45263157894726C158.78253968253975 505.45263157894726 158.07777777777784 505.16315789473674 157.4317460317461 505.16315789473674C156.08095238095245 505.16315789473674 154.7301587301588 506.3210526315788 154.7301587301588 508.52105263157887C154.7301587301588 509.96842105263147 155.4349206349207 510.95263157894726 156.84444444444452 510.95263157894726C157.31428571428577 510.95263157894726 157.96031746031753 510.778947368421 157.96031746031753 510.778947368421Z"/>
              </g>
              <g opacity="1">
                <path fill="rgb(255,255,255)" fill-opacity="1" opacity="1" fill-rule="evenodd" d="M140.16510009765625 506.43682861328125C140.16510009765625 506.43682861328125 140.75238037109375 506.20526123046875 141.57461547851562 506.20526123046875C141.9857177734375 506.20526123046875 143.16033935546875 506.26318359375 143.16033935546875 507.65264892578125L142.69049072265625 510.83685302734375L141.63333129882812 510.83685302734375L141.69207763671875 510.3736572265625C141.63333129882812 510.3736572265625 141.28097534179688 510.89471435546875 140.458740234375 510.89471435546875C140.04763793945312 510.89471435546875 139.34286499023438 510.66314697265625 139.34286499023438 509.62103271484375C139.34286499023438 508.28948974609375 140.458740234375 507.88421630859375 141.4571533203125 507.88421630859375L141.9857177734375 507.88421630859375C141.9857177734375 507.88421630859375 142.04446411132812 507.8262939453125 142.04446411132812 507.5947265625C142.04446411132812 507.24737548828125 141.69207763671875 507.189453125 141.28097534179688 507.189453125C140.5174560546875 507.189453125 139.9888916015625 507.4210205078125 139.9888916015625 507.4210205078125L140.16510009765625 506.43682861328125ZM140.9873046875 509.9105224609375C141.69204711914062 509.9105224609375 141.80950927734375 508.98419189453125 141.80950927734375 508.810546875C141.80950927734375 508.810546875 141.75079345703125 508.810546875 141.5745849609375 508.75262451171875C140.69363403320312 508.75262451171875 140.5174560546875 509.15789794921875 140.5174560546875 509.4473876953125C140.5174560546875 509.62103271484375 140.63491821289062 509.9105224609375 140.9873046875 509.9105224609375Z"/>
              </g>
              <g opacity="1">
                <path fill="rgb(255,255,255)" fill-opacity="1" opacity="1" fill-rule="evenodd" d="M144.27619047619055 510.89473684210515C144.56984126984133 510.89473684210515 146.0380952380953 510.95263157894726 146.0380952380953 509.38947368421043C146.0380952380953 507.94210526315777 144.6285714285715 508.23157894736835 144.6285714285715 507.65263157894725C144.6285714285715 507.36315789473673 144.86349206349212 507.24736842105256 145.27460317460324 507.24736842105256C145.4507936507937 507.24736842105256 146.09682539682547 507.3052631578946 146.09682539682547 507.3052631578946L146.27301587301594 506.26315789473676C146.27301587301594 506.26315789473676 145.86190476190484 506.14736842105253 145.15714285714293 506.14736842105253C144.27619047619055 506.14736842105253 143.39523809523817 506.49473684210517 143.39523809523817 507.65263157894725C143.39523809523817 508.9842105263157 144.86349206349212 508.8684210526315 144.86349206349212 509.38947368421043C144.86349206349212 509.73684210526307 144.45238095238102 509.7947368421052 144.15873015873024 509.7947368421052C143.6301587301588 509.7947368421052 143.10158730158736 509.62105263157883 143.10158730158736 509.62105263157883L142.9253968253969 510.66315789473674C142.98412698412704 510.778947368421 143.27777777777783 510.89473684210515 144.27619047619055 510.89473684210515Z"/>
              </g>
              <g opacity="1">
                <path fill="rgb(255,255,255)" fill-opacity="1" opacity="1" fill-rule="evenodd" d="M167.474609375 506.84210205078125L167.70953369140625 505.2789306640625L168.94287109375 505.33685302734375L168.06192016601562 510.89471435546875L166.88729858398438 510.89471435546875L166.946044921875 510.48944091796875C166.946044921875 510.48944091796875 166.534912109375 510.95263671875 165.83016967773438 510.95263671875C164.83175659179688 510.95263671875 164.36190795898438 509.9683837890625 164.36190795898438 509.0421142578125C164.36190795898438 507.53680419921875 165.30160522460938 506.26312255859375 166.35873413085938 506.26312255859375C167.0047607421875 506.26312255859375 167.474609375 506.84210205078125 167.474609375 506.84210205078125ZM166.24127197265625 509.79473876953125C166.88729858398438 509.79473876953125 167.18096923828125 508.98419189453125 167.18096923828125 508.34735107421875C167.18096923828125 507.65264892578125 166.946044921875 507.3631591796875 166.53494262695312 507.3631591796875C166.00634765625 507.3631591796875 165.59524536132812 507.94207763671875 165.59524536132812 508.868408203125C165.59524536132812 509.4473876953125 165.83016967773438 509.79473876953125 166.24127197265625 509.79473876953125Z"/>
              </g>
              <g opacity="1">
                <path fill="rgb(255,255,255)" fill-opacity="1" opacity="1" fill-rule="evenodd" d="M135.17301587301594 510.8368421052631L135.87777777777785 506.6684210526315L135.99523809523816 510.8368421052631L136.8174603174604 510.8368421052631L138.34444444444452 506.6684210526315L137.69841269841277 510.8368421052631L138.93174603174612 510.8368421052631L139.87142857142865 505.278947368421L137.93333333333342 505.278947368421L136.75873015873023 508.69473684210516L136.70000000000007 505.278947368421L134.99682539682547 505.278947368421L134.05714285714294 510.8368421052631L135.17301587301594 510.8368421052631Z"/>
              </g>
              <g opacity="1">
                <path fill="rgb(255,255,255)" fill-opacity="1" opacity="1" fill-rule="evenodd" d="M153.37936507936513 510.83684210526314C153.73174603174607 508.9263157894737 153.79047619047623 507.36315789473684 154.61269841269845 507.65263157894736C154.73015873015876 506.9 154.90634920634923 506.61052631578946 155.02380952380958 506.32105263157894C155.02380952380958 506.32105263157894 154.96507936507942 506.32105263157894 154.78888888888892 506.32105263157894C154.2603174603175 506.32105263157894 153.84920634920638 507.0157894736842 153.84920634920638 507.0157894736842L153.9666666666667 506.37894736842105L152.8507936507937 506.37894736842105L152.08730158730162 510.89473684210526L153.37936507936513 510.89473684210526L153.37936507936513 510.83684210526314Z"/>
              </g>
              <g opacity="1">
                <path fill="rgb(255,255,255)" fill-opacity="1" opacity="1" fill-rule="evenodd" d="M159.25238037109375 506.43682861328125C159.25238037109375 506.43682861328125 159.83966064453125 506.20526123046875 160.66189575195312 506.20526123046875C161.072998046875 506.20526123046875 162.30633544921875 506.26318359375 162.24761962890625 507.65264892578125L161.77777099609375 510.83685302734375L160.72061157226562 510.83685302734375L160.77935791015625 510.3736572265625C160.72061157226562 510.3736572265625 160.36825561523438 510.89471435546875 159.5460205078125 510.89471435546875C159.13491821289062 510.89471435546875 158.43014526367188 510.66314697265625 158.43014526367188 509.62103271484375C158.43014526367188 508.28948974609375 159.5460205078125 507.88421630859375 160.54443359375 507.88421630859375L161.072998046875 507.88421630859375C161.072998046875 507.88421630859375 161.13174438476562 507.8262939453125 161.13174438476562 507.5947265625C161.13174438476562 507.24737548828125 160.77935791015625 507.189453125 160.36825561523438 507.189453125C159.604736328125 507.189453125 159.076171875 507.4210205078125 159.076171875 507.4210205078125L159.25238037109375 506.43682861328125ZM160.13333129882812 509.9105224609375C160.83807373046875 509.9105224609375 160.95553588867188 508.98419189453125 160.95553588867188 508.810546875C160.89682006835938 508.810546875 160.89682006835938 508.810546875 160.72061157226562 508.75262451171875C159.83966064453125 508.75262451171875 159.66348266601562 509.15789794921875 159.66348266601562 509.4473876953125C159.66348266601562 509.62103271484375 159.78094482421875 509.9105224609375 160.13333129882812 509.9105224609375Z"/>
              </g>
              <g opacity="1">
                <path fill="rgb(255,255,255)" fill-opacity="1" opacity="1" fill-rule="evenodd" d="M163.2460317460318 510.83684210526314C163.59841269841274 508.9263157894737 163.6571428571429 507.36315789473684 164.47936507936512 507.65263157894736C164.59682539682544 506.9 164.7730158730159 506.61052631578946 164.89047619047625 506.32105263157894C164.89047619047625 506.32105263157894 164.8317460317461 506.32105263157894 164.6555555555556 506.32105263157894C164.12698412698418 506.32105263157894 163.71587301587306 507.0157894736842 163.71587301587306 507.0157894736842L163.83333333333337 506.37894736842105L162.71746031746036 506.37894736842105L161.9539682539683 510.89473684210526L163.2460317460318 510.89473684210526L163.2460317460318 510.83684210526314Z"/>
              </g>
            </g>
            <g opacity="1">
              <g opacity="1">
                <path fill="rgb(220,229,229)" fill-opacity="1" opacity="1" fill-rule="evenodd" d="M146.21428571428578 509.9684210526315C146.21428571428578 510.6631578947368 146.62539682539688 510.9526315789473 147.15396825396832 510.9526315789473C147.56507936507944 510.9526315789473 147.91746031746038 510.8368421052631 148.0349206349207 510.778947368421L148.21111111111117 509.7947368421052C148.152380952381 509.7947368421052 148.0349206349207 509.8526315789473 147.91746031746038 509.8526315789473C147.50634920634928 509.8526315789473 147.4476190476191 509.6210526315789 147.50634920634928 509.50526315789466L147.85873015873022 507.47894736842096L148.50476190476198 507.47894736842096L148.68095238095245 506.378947368421L148.09365079365085 506.378947368421L148.21111111111117 505.6842105263157"/>
              </g>
              <g opacity="1">
                <path fill="rgb(220,229,229)" fill-opacity="1" opacity="1" fill-rule="evenodd" d="M150.5015869140625 510.95263671875C149.5618896484375 510.95263671875 149.0333251953125 510.54736328125 149.0333251953125 508.92633056640625C149.0333251953125 507.47894287109375 149.32696533203125 506.20526123046875 150.560302734375 506.321044921875C151.85238647460938 506.321044921875 152.26348876953125 507.24737548828125 152.26348876953125 508C152.26348876953125 508.28948974609375 152.0872802734375 509.0421142578125 152.0872802734375 509.0421142578125L149.67935180664062 509.0421142578125C149.67935180664062 509.0421142578125 149.44442749023438 509.96844482421875 150.73651123046875 509.96844482421875C151.32379150390625 509.96844482421875 151.96981811523438 509.678955078125 151.96981811523438 509.678955078125L151.73492431640625 510.7789306640625C151.73492431640625 510.7789306640625 151.38253784179688 510.95263671875 150.5015869140625 510.95263671875ZM151.26507568359375 508.05792236328125C151.26507568359375 508 151.14761352539062 507.24737548828125 150.5015869140625 507.24737548828125C149.85556030273438 507.24737548828125 149.73809814453125 508 149.73809814453125 508.05792236328125L151.26507568359375 508.05792236328125Z"/>
              </g>
              <g opacity="1">
                <path fill="rgb(220,229,229)" fill-opacity="1" opacity="1" fill-rule="evenodd" d="M157.9603174603175 510.778947368421L158.19523809523815 509.5052631578946C158.19523809523815 509.5052631578946 157.60793650793656 509.7947368421052 157.19682539682543 509.7947368421052C156.3746031746032 509.7947368421052 156.02222222222227 509.157894736842 156.02222222222227 508.46315789473675C156.02222222222227 507.0736842105262 156.72698412698418 506.3210526315788 157.5492063492064 506.3210526315788C158.13650793650797 506.3210526315788 158.60634920634925 506.66842105263146 158.60634920634925 506.66842105263146L158.78253968253972 505.45263157894726C158.78253968253972 505.45263157894726 158.0777777777778 505.16315789473674 157.4317460317461 505.16315789473674C156.08095238095243 505.16315789473674 155.31746031746036 506.3210526315788 155.31746031746036 508.52105263157887C155.31746031746036 509.96842105263147 155.43492063492067 510.95263157894726 156.8444444444445 510.95263157894726C157.31428571428577 510.95263157894726 157.9603174603175 510.778947368421 157.9603174603175 510.778947368421Z"/>
              </g>
              <g opacity="1">
                <path fill="rgb(220,229,229)" fill-opacity="1" opacity="1" fill-rule="evenodd" d="M141.28097534179688 507.24737548828125C140.5174560546875 507.24737548828125 139.9888916015625 507.47894287109375 139.9888916015625 507.47894287109375L141.515869140625 506.321044921875C141.9857177734375 506.321044921875 143.16033935546875 506.37896728515625 143.16033935546875 507.71051025390625L142.69049072265625 510.89471435546875L141.63333129882812 510.89471435546875L141.69207763671875 510.43157958984375C141.63333129882812 510.43157958984375 141.28097534179688 510.95263671875 140.458740234375 510.95263671875C140.04763793945312 510.95263671875 139.34286499023438 510.7210693359375 139.34286499023438 509.678955078125C139.34286499023438 508.34735107421875 140.458740234375 507.94207763671875 141.4571533203125 507.94207763671875L141.9857177734375 507.94207763671875C141.9857177734375 507.94207763671875 142.04446411132812 507.88421630859375 142.04446411132812 507.65264892578125C142.04446411132812 507.30523681640625 141.69207763671875 507.24737548828125 141.28097534179688 507.24737548828125ZM140.9873046875 509.9105224609375C141.69204711914062 509.9105224609375 142.39682006835938 508.98419189453125 142.39682006835938 508.810546875C142.39682006835938 508.810546875 141.75079345703125 508.810546875 141.5745849609375 508.75262451171875C140.69363403320312 508.75262451171875 140.5174560546875 509.15789794921875 140.5174560546875 509.4473876953125C140.5174560546875 509.62103271484375 140.63491821289062 509.9105224609375 140.9873046875 509.9105224609375Z"/>
              </g>
              <g opacity="1">
                <path fill="rgb(220,229,229)" fill-opacity="1" opacity="1" fill-rule="evenodd" d="M142.98412698412704 510.778947368421C142.98412698412704 510.778947368421 143.33650793650799 510.89473684210515 144.3349206349207 510.89473684210515C144.6285714285715 510.89473684210515 146.09682539682547 510.95263157894726 146.09682539682547 509.38947368421043C146.09682539682547 507.94210526315777 144.68730158730165 508.23157894736835 144.68730158730165 507.65263157894725C144.68730158730165 507.36315789473673 144.92222222222227 507.24736842105256 145.3333333333334 507.24736842105256C145.50952380952387 507.24736842105256 146.15555555555562 507.3052631578946 146.15555555555562 507.3052631578946L146.3317460317461 506.26315789473676C146.3317460317461 506.26315789473676 145.920634920635 506.14736842105253 145.2158730158731 506.14736842105253C144.3349206349207 506.14736842105253 144.0412698412699 506.49473684210517 144.0412698412699 507.65263157894725C144.0412698412699 508.9842105263157 144.92222222222227 508.8684210526315 144.92222222222227 509.38947368421043C144.92222222222227 509.73684210526307 144.51111111111118 509.7947368421052 144.2174603174604 509.7947368421052"/>
              </g>
              <g opacity="1">
                <path fill="rgb(220,229,229)" fill-opacity="1" opacity="1" fill-rule="evenodd" d="M166.35873413085938 506.26318359375C167.0047607421875 506.26318359375 167.474609375 506.84210205078125 167.474609375 506.84210205078125L168.94287109375 505.33685302734375L168.06192016601562 510.894775390625L166.88729858398438 510.894775390625L166.946044921875 510.489501953125C166.946044921875 510.489501953125 166.534912109375 510.95263671875 165.83016967773438 510.95263671875C164.92724609375 510.95263671875 164.93695068359375 510.147705078125 164.94708251953125 509.30859375C164.94815063476562 509.2198486328125 164.94921875 509.1307373046875 164.94921875 509.0421142578125C164.94921875 507.536865234375 165.30157470703125 506.26318359375 166.35873413085938 506.26318359375ZM166.24127197265625 509.79473876953125C166.88729858398438 509.79473876953125 167.4158935546875 508.98419189453125 167.4158935546875 508.34735107421875C167.4158935546875 507.65264892578125 166.946044921875 507.3631591796875 166.53494262695312 507.3631591796875C166.00634765625 507.3631591796875 165.59524536132812 507.94207763671875 165.59524536132812 508.868408203125C165.59524536132812 509.4473876953125 165.83016967773438 509.79473876953125 166.24127197265625 509.79473876953125Z"/>
              </g>
              <g opacity="1">
                <path fill="rgb(220,229,229)" fill-opacity="1" opacity="1" fill-rule="evenodd" d="M135.17301587301594 510.8368421052631L135.87777777777785 506.6684210526315L135.99523809523816 510.8368421052631L136.8174603174604 510.8368421052631L138.34444444444452 506.6684210526315L137.69841269841277 510.8368421052631L138.93174603174612 510.8368421052631L139.87142857142865 505.278947368421L138.40317460317468 505.278947368421L136.75873015873023 508.69473684210516L136.70000000000007 505.278947368421L136.05396825396832 505.278947368421L134.05714285714294 510.8368421052631L135.17301587301594 510.8368421052631Z"/>
              </g>
              <g opacity="1">
                <path fill="rgb(220,229,229)" fill-opacity="1" opacity="1" fill-rule="evenodd" d="M152.14603174603178 510.83684210526314L153.3793650793651 510.83684210526314C153.73174603174607 508.9263157894737 153.79047619047623 507.36315789473684 154.61269841269845 507.65263157894736C154.73015873015876 506.9 154.90634920634923 506.61052631578946 155.02380952380958 506.32105263157894C155.02380952380958 506.32105263157894 154.9650793650794 506.32105263157894 154.78888888888892 506.32105263157894C154.2603174603175 506.32105263157894 153.84920634920638 507.0157894736842 153.84920634920638 507.0157894736842L153.9666666666667 506.37894736842105"/>
              </g>
              <g opacity="1">
                <path fill="rgb(220,229,229)" fill-opacity="1" opacity="1" fill-rule="evenodd" d="M160.36825561523438 507.24737548828125C159.604736328125 507.24737548828125 159.076171875 507.47894287109375 159.076171875 507.47894287109375L160.6031494140625 506.321044921875C161.072998046875 506.321044921875 162.24761962890625 506.37896728515625 162.24761962890625 507.71051025390625L161.77777099609375 510.89471435546875L160.72061157226562 510.89471435546875L160.77935791015625 510.43157958984375C160.72061157226562 510.43157958984375 160.36825561523438 510.95263671875 159.5460205078125 510.95263671875C159.13491821289062 510.95263671875 158.43014526367188 510.7210693359375 158.43014526367188 509.678955078125C158.43014526367188 508.34735107421875 159.5460205078125 507.94207763671875 160.54443359375 507.94207763671875L161.072998046875 507.94207763671875C161.072998046875 507.94207763671875 161.13174438476562 507.88421630859375 161.13174438476562 507.65264892578125C161.13174438476562 507.30523681640625 160.77935791015625 507.24737548828125 160.36825561523438 507.24737548828125ZM160.07461547851562 509.9105224609375C160.77935791015625 509.9105224609375 161.484130859375 508.98419189453125 161.484130859375 508.810546875C161.484130859375 508.810546875 160.89682006835938 508.810546875 160.66189575195312 508.75262451171875C159.78094482421875 508.75262451171875 159.60476684570312 509.15789794921875 159.60476684570312 509.4473876953125C159.60476684570312 509.62103271484375 159.72222900390625 509.9105224609375 160.07461547851562 509.9105224609375Z"/>
              </g>
              <g opacity="1">
                <path fill="rgb(220,229,229)" fill-opacity="1" opacity="1" fill-rule="evenodd" d="M162.01269841269846 510.83684210526314L163.24603174603178 510.83684210526314C163.59841269841274 508.9263157894737 163.6571428571429 507.36315789473684 164.47936507936512 507.65263157894736C164.59682539682544 506.9 164.7730158730159 506.61052631578946 164.89047619047625 506.32105263157894C164.89047619047625 506.32105263157894 164.83174603174606 506.32105263157894 164.6555555555556 506.32105263157894C164.12698412698418 506.32105263157894 163.71587301587306 507.0157894736842 163.71587301587306 507.0157894736842L163.83333333333337 506.37894736842105"/>
              </g>
            </g>
          </g>
        </g>
      </g>
      <g opacity="1">
        <g opacity="1">
          <text font-size="0" transform="translate(358, 412)">
            <tspan font-size="18" font-family="Avenir" font-weight="800" style="white-space: pre;text-transform: none" fill="rgb(106,101,255)" x="0" y="17">Add New</tspan>
          </text>
        </g>
        <g opacity="1">
          <g opacity="1">
            <path fill="rgb(106,101,255)" fill-opacity="1" opacity="1" fill-rule="evenodd" d="M331.068359375 424C331.068359375 418.5299072265625 335.5299072265625 414.08544921875 341 414.08544921875C346.4700927734375 414.08544921875 350.91448974609375 418.5299072265625 350.91448974609375 424C350.91448974609375 429.4700927734375 346.4700927734375 433.91448974609375 341 433.91448974609375C335.5128173828125 433.91448974609375 331.068359375 429.4700927734375 331.068359375 424ZM332.4700927734375 424C332.4700927734375 428.70086669921875 336.29913330078125 432.5299072265625 341 432.5299072265625C345.70086669921875 432.5299072265625 349.5299072265625 428.70086669921875 349.5299072265625 424C349.5299072265625 419.29913330078125 345.70086669921875 415.4700927734375 341 415.4700927734375C336.29913330078125 415.4700927734375 332.4700927734375 419.29913330078125 332.4700927734375 424Z"/>
          </g>
          <g opacity="1">
            <path fill="rgb(106,101,255)" fill-opacity="1" opacity="1" fill-rule="evenodd" d="M345.56410256410254 423.21367521367523L341.7008547008547 423.21367521367523L341.7008547008547 419.3333333333333C341.7008547008547 418.94017094017096 341.3931623931624 418.63247863247864 341 418.63247863247864C340.6068376068376 418.63247863247864 340.2991452991453 418.94017094017096 340.2991452991453 419.3333333333333L340.2991452991453 423.19658119658123L336.4358974358974 423.19658119658123C336.04273504273505 423.19658119658123 335.7350427350427 423.5042735042735 335.7350427350427 423.8974358974359C335.7350427350427 424.2905982905983 336.04273504273505 424.5982905982906 336.4358974358974 424.5982905982906L340.2991452991453 424.5982905982906L340.2991452991453 428.46153846153845C340.2991452991453 428.85470085470087 340.6068376068376 429.1623931623932 341 429.1623931623932C341.3931623931624 429.1623931623932 341.7008547008547 428.85470085470087 341.7008547008547 428.46153846153845L341.7008547008547 424.5982905982906L345.56410256410254 424.5982905982906C345.95726495726495 424.5982905982906 346.2649572649573 424.2905982905983 346.2649572649573 423.8974358974359C346.2649572649573 423.5042735042735 345.95726495726495 423.21367521367523 345.56410256410254 423.21367521367523L345.56410256410254 423.21367521367523Z"/>
          </g>
        </g>
      </g>
      <g opacity="1">
        <text font-size="0" transform="translate(118, 411)">
          <tspan font-size="18" font-family="Avenir" font-weight="500" style="white-space: pre;text-transform: none" fill="rgb(155,153,173)" x="0" y="17">Saved Cards</tspan>
        </text>
      </g>
      <g opacity="1">
        <g opacity="1">
          <text font-size="0" transform="translate(118, 278)">
            <tspan font-size="45" font-family="Avenir" font-weight="400" style="white-space: pre;text-transform: none" fill="rgb(30,29,34)" x="0" y="39">$820.00</tspan>
          </text>
        </g>
        <g opacity="1">
          <text font-size="0" transform="translate(118, 248)">
            <tspan font-size="18" font-family="Avenir" font-weight="500" style="white-space: pre;text-transform: none" fill="rgb(143,143,167)" x="0" y="17">Total bill amount</tspan>
          </text>
        </g>
        <g opacity="1">
          <text font-size="0" transform="translate(362, 248)">
            <tspan font-size="18" font-family="Avenir" font-weight="500" style="white-space: pre;text-transform: none" fill="rgb(106,101,255)" x="0" y="17">Summary</tspan>
          </text>
        </g>
      </g>
      <g opacity="1">
        <g opacity="1">
          <text font-size="0" transform="translate(118, 164)">
            <tspan font-size="25" font-family="Avenir" font-weight="500" style="white-space: pre;text-transform: none" fill="rgb(30,29,34)" x="0" y="25">Checkout</tspan>
          </text>
        </g>
        <g opacity="1">
          <path fill="rgb(80,75,113)" fill-opacity="1" opacity="1" fill-rule="evenodd" d="M137.08668329177058 141.3252867830424L120.9484289276808 141.3252867830424L124.79925187032418 137.4742144638404C125.136608478803 137.13705735660847 125.136608478803 136.5901246882793 124.79925187032418 136.2530174563591C124.46189526184538 135.9156608478803 123.91496259351621 135.9156608478803 123.57810473815461 136.2530174563591L118.2530174563591 141.57820448877806C117.9156608478803 141.91536159600997 117.9156608478803 142.46234413965087 118.2530174563591 142.79940149625935L123.57810473815461 148.12483790523692C123.7467331670823 148.29356608478804 123.96773067331671 148.3778054862843 124.1886783042394 148.3778054862843C124.4096259351621 148.3778054862843 124.63062344139651 148.29356608478804 124.79925187032418 148.12483790523692C125.136608478803 147.787680798005 125.136608478803 147.2407481296758 124.79925187032418 146.90369077306732L120.9484289276808 143.05241895261847L137.08668329177058 143.05241895261847C137.5635910224439 143.05241895261847 137.95032418952619 142.66573566084787 137.95032418952619 142.18882793017457C137.95032418952619 141.71192019950124 137.56364089775562 141.3252867830424 137.08668329177058 141.3252867830424Z"/>
        </g>
      </g>
    </g>
  </g>
</svg>