<?xml version="1.0" encoding="utf-8"?>
<!-- Generator: Adobe Illustrator 25.2.1, SVG Export Plug-In . SVG Version: 6.00 Build 0)  -->
<svg version="1.1" id="Capa_1" xmlns="http://www.w3.org/2000/svg" xmlns:xlink="http://www.w3.org/1999/xlink" x="0px" y="0px"
	 viewBox="0 0 1084.5 1355.5" style="enable-background:new 0 0 1084.5 1355.5;" xml:space="preserve">
<style type="text/css">
	.st0{fill:none;stroke:#343348;stroke-width:6;stroke-miterlimit:10;}
	.st1{fill:none;stroke:#343348;stroke-width:6;stroke-linecap:round;stroke-linejoin:round;stroke-miterlimit:10;}
	.st2{fill:#FFFFFF;stroke:#343348;stroke-width:6;stroke-miterlimit:10;}
	.st3{fill:#6C757D;stroke:#343348;stroke-width:6;stroke-miterlimit:10;}
	.st4{fill:#F0E1D4;}
	.st5{fill:#672C82;}
	.st6{fill:none;stroke:#FFFFFF;stroke-width:5;stroke-linecap:round;stroke-miterlimit:10;}
	.st7{fill:#F9AB5D;}
	.st8{fill:#E29149;}
	.st9{fill:none;stroke:#FFFFFF;stroke-width:6;stroke-linecap:round;stroke-miterlimit:10;}
	.st10{fill:#0084FF;}
	.st11{fill:#FFFFFF;}
	.st12{fill:none;stroke:#672C82;stroke-width:5;stroke-miterlimit:10;}
	.st13{fill:#672C82;stroke:#672C82;stroke-width:5;stroke-miterlimit:10;}
	.st14{fill:#FFB000;}
	.st15{fill:#3F4D79;stroke:#FFFFFF;stroke-width:2;stroke-miterlimit:10;}
	.st16{opacity:0.2;fill:#FFFFFF;enable-background:new    ;}
	.st17{fill:#FF8400;}
	.st18{fill:none;stroke:#FF8400;stroke-width:3;stroke-linecap:round;stroke-miterlimit:10;}
	.st19{fill:none;stroke:#FF8400;stroke-width:3;stroke-linecap:round;stroke-linejoin:round;stroke-miterlimit:10;}
	.st20{fill:none;stroke:#343348;stroke-width:5;stroke-linecap:round;stroke-miterlimit:10;}
	.st21{fill:#FFFFFF;stroke:#343348;stroke-width:5;stroke-linecap:round;stroke-miterlimit:10;}
	.st22{fill:#6C757D;}
	.st23{fill:#FFFFFF;stroke:#343348;stroke-width:6;stroke-linecap:round;stroke-linejoin:round;stroke-miterlimit:10;}
</style>
<g id="Layer_2">
	<g id="Слой_1">
		<g id="_4">
			<g id="CHAIR">
				<path class="st0" d="M955.6,1352.5H755.6c-39.2,0-70.9-31.8-70.9-70.9l0,0V961.1c0-20.8,16.8-37.6,37.6-37.6h286.3
					c20.8,0,37.6-16.8,37.6-37.6v-66.3"/>
				<path class="st1" d="M1056.6,1352.5H946.6c-39.2,0-70.9-31.8-70.9-70.9l0,0V962.3c0-21.4,17.4-38.8,38.8-38.8c0,0,0,0,0,0"/>
				<path class="st2" d="M1052.7,537.8c15.9,0,28.8,12.9,28.8,28.8c0,1.2-0.1,2.5-0.2,3.7l-28.2,217.9
					c-10.1,78-76.5,136.4-155.1,136.4H584.7c-8.8,0-16-7.2-16-16v-0.2c0-7.9,5.8-14.6,13.6-15.8c67.2-11,169.5-41.6,179.8-134.3
					l25.2-195.3c1.9-14.4,14.1-25.1,28.6-25.1L1052.7,537.8z"/>
				<path class="st3" d="M1081.3,570.3l-28.2,217.9c-10.1,78-76.5,136.4-155.1,136.4H584.8c-8.8,0-16-7.2-16-16v-0.2
					c0-2.5,0.6-5,1.8-7.2c2.6,5.1,7.9,8.3,13.6,8.3H887c75.5,0,139.4-56.1,149.1-131l27-209.4c2-15.2-8.7-29-23.9-31
					c-1.2-0.2-2.4-0.2-3.6-0.2h17.1c15.9,0,28.8,12.9,28.8,28.8C1081.5,567.8,1081.4,569.1,1081.3,570.3z"/>
				<line class="st0" x1="684.6" y1="1231.1" x2="875.6" y2="1231.1"/>
			</g>
			<g id="MAN">
				<g id="LEGS">
					<g id="SHOES">
						<path class="st4" d="M386.7,1263.4c0,6.9,14.7,35.3,14.2,47.5s-52.8,11.1-78.7,11.2c-30.8,0.2-96.3,0.2-96.3,0.2
							s-6.4-28.2,27.4-32.2s74.5-39.6,74.5-39.6L386.7,1263.4z"/>
						<path class="st4" d="M754.7,1272.8c1.6,5.8,19.2,31.2,19.2,55.6c0,0-31.8,22-43,23.4s-103.7,0-103.7,0s-2.2-30.3,38.1-35.5
							c28.3-3.7,29.3-38,29.3-38L754.7,1272.8z"/>
					</g>
					<g id="LEGS-2">
						<path class="st5" d="M879,681c0,0,45,81.1,27.4,138.8s-121.8,48.1-121.8,48.1s33.2,128.6-15.4,399.4c0,0-38.4,20.5-103.9,6.8
							c0,0-9.8-126.1-55.2-404.8l-82.6-0.2c0,0,12.6,203.1-124.8,392.3c0,0-43.4,11.3-91.3-20c0,0,60.5-275.6,70.9-444.8
							c3-49.8,84.5-93.7,269.5-115.7C651.8,681.1,818.8,691.2,879,681z"/>
						<path class="st6" d="M608.1,873.4c-3.5-19.5-22-105.8,90.5-133.2"/>
						<path class="st6" d="M775.9,837.2c0,0,7.8,10.6,11.8,31.8"/>
					</g>
				</g>
				<g id="LEFT_HAND">
					<path class="st7" d="M590.2,613c-43.3,64.2-236.6,36.8-286.9,28.5c-4.3,4.4-10,9.1-15.8,10.3c-11.9,2.4-47.9-0.7-52.7,3
						c0,0-2.1-9.8,9.5-15c8-3.6,21.7-0.7,16.7-5.8c-3.4-3.5-11.8-2.7-29.7,2.8c-6.7,2.1-31.3,13.9-37.7-2.2l24.2-23
						c16.1-8.9,24.5-19,59.6-10.9c4.6,1.1,9.5,1.2,14.2,0.2c11.3-5.1,108.7-45.8,196.2-60l19.2-124.8c31.9,29.1,87.9,54.2,91.7,55.9
						C598.5,472.2,608.5,585.8,590.2,613z"/>
					<path class="st8" d="M600.3,499.9c-19.3-8.6-67.4-32.2-95.8-68.5l2.3-15.1c31.9,29.1,87.9,54.2,91.7,55.9
						C598.5,472.2,599.5,483.5,600.3,499.9z"/>
				</g>
				<g id="SHIRT">
					<path class="st4" d="M824.7,191.6c6.8,6.8,50.8,40.1,143.2,94.8c16.6,9.8,64.2,55.7,61.3,152.9c0,0-35.2,33.8-124.2,52.7
						c0,0-19.9,143.8-21.3,181.6s-226.9,21-236.6,6.5s-47.9-145-48.4-207.9c0,0-94.8-41.6-111.3-80.8c0,0,39.7-91.9,66.3-108.4
						c31.7-19.6,117.3-46,169.2-88.6L824.7,191.6z"/>
					<line class="st9" x1="902.2" y1="490.2" x2="895.5" y2="414.4"/>
					<path class="st9" d="M596.8,468.5c0,0-4.6-44.6,9-92.4"/>
					<g id="TIE">
						<path class="st10" d="M737.4,392.8c14.6,84.9,51.5,206-10.2,243c0,0,14.2-32.9-19.6-110.2c-47.4-108.3,3.6-236.9,15.5-264.2
							l-17.4-22.8l25.3-25.7l7.3,1.1l23.2,27.7l-25.3,25.1C733.8,274.1,724.1,315.1,737.4,392.8z"/>
						<path class="st11" d="M743.9,223.5l-28.2,28.2l-2.3-3l27.8-27.8c0.8-0.7,2-0.7,2.7,0.1C744.6,221.6,744.6,222.8,743.9,223.5
							L743.9,223.5z"/>
						<path class="st11" d="M753.4,234.8l-33,33c1-2.6,2-4.8,2.8-6.5l-0.7-0.9l28.3-28.3c0.8-0.7,2-0.6,2.7,0.2
							C754.1,233,754.1,234.1,753.4,234.8L753.4,234.8z"/>
						<path class="st11" d="M735.9,267.8c-0.5,1.5-1.1,3.9-1.7,7l0,0l-25.8,25.7c0.9-2.8,1.8-5.4,2.6-8l0,0L735.9,267.8z"/>
						<path class="st11" d="M731.6,293.9c-0.2,1.8-0.3,3.8-0.5,5.8L700,330.3c0.6-2.4,1.2-4.8,1.8-7.1L731.6,293.9z"/>
						<path class="st11" d="M730.6,322.9l-36.7,36.2c0.4-2.2,0.8-4.4,1.2-6.5l0,0l35.5-35C730.5,319.4,730.5,321.1,730.6,322.9z"/>
						<path class="st11" d="M731.7,347.4l-42,41.3c0.2-2,0.4-4,0.7-6l41-40.3C731.4,344.1,731.5,345.7,731.7,347.4z"/>
						<path class="st11" d="M734.1,370.6L687.9,416c0-1.8,0.1-3.7,0.2-5.5l45.4-44.6C733.7,367.5,733.9,369,734.1,370.6z"/>
						<path class="st11" d="M737.7,394.3l-49.3,47.8c-0.1-1.7-0.2-3.4-0.3-5l48.8-47.3c0.2,1,0.3,2,0.5,3
							C737.5,393.3,737.6,393.8,737.7,394.3z"/>
						<path class="st11" d="M742.2,418.3l-51,49.5c-0.2-1.5-0.5-3.1-0.7-4.6l50.8-49.3C741.6,415.4,741.9,416.8,742.2,418.3z"/>
						<path class="st11" d="M747,442.8l-50.9,49.4c-0.4-1.4-0.7-2.8-1.1-4.2l0,0l51.1-49.5C746.4,439.8,746.7,441.3,747,442.8z"/>
						<path class="st11" d="M751.8,467.4l-48.6,47.1c-0.5-1.3-1-2.6-1.4-3.9L751,463C751.2,464.5,751.5,465.9,751.8,467.4z"/>
						<path class="st11" d="M756.4,494.1l-44,42.7c-0.5-1.2-1-2.5-1.5-3.8l44.8-43.5C755.9,491,756.1,492.5,756.4,494.1z"/>
						<path class="st11" d="M759.8,519.9l-39.7,38.5c-0.4-1.3-0.9-2.7-1.3-4l40.4-39.2C759.5,516.7,759.6,518.3,759.8,519.9z"/>
						<path class="st11" d="M761.7,547.4l-35.2,34.2c-0.3-1.4-0.6-2.8-1-4.3l36.1-35C761.6,544,761.6,545.7,761.7,547.4z"/>
						<path class="st11" d="M761,570.2c-0.2,2-0.4,3.9-0.6,5.9l-30.5,29.6c-0.1-1.6-0.2-3.2-0.4-4.9l0,0L761,570.2z"/>
					</g>
					<path class="st9" d="M672.9,225.6c12.6,9.9,27.2,20.1,27.2,20.1l34.5-34.5l35.7,40.5c58.3-5.1,85.5-37.8,85.5-37.8"/>
				</g>
				<g id="RIGHT_HAND">
					<g id="_Группа_">
						<path class="st12" d="M623.8,561.2h7.2c10.2,0,18.4,8.3,18.4,18.4v28.3c0,10.2-8.3,18.4-18.4,18.4l0,0h-7.1"/>
						<path class="st13" d="M570.2,547.2h36.1c10.2,0,18.4,8.3,18.4,18.4v57.5c0,10.2-8.3,18.4-18.4,18.4h-36.1
							c-10.2,0-18.4-8.3-18.4-18.4v-57.5C551.8,555.4,560,547.2,570.2,547.2z"/>
					</g>
					<path class="st7" d="M1011.4,451.7c0,0,6.3,137.1-12.1,159.4c-56.6,69-298.9,26.4-298.9,26.4l-1-35.8
						c0,0,104.2-37.3,197.3-52.4l6.3-56.3C903.1,493,970.5,479.6,1011.4,451.7z"/>
					<path class="st8" d="M1012.3,486.1c-34.8,17.8-89.5,19.1-109.9,18.5l0.7-11.7c0,0,67.4-13.4,108.3-41.3
						C1011.4,451.7,1012.1,466,1012.3,486.1z"/>
					<g id="_Группа_2">
						<path class="st7" d="M703,598.4c0,0-32.3-25.7-47.3-21.2s-17,23.7-18.8,28.5s-3.4,22.4-3.4,27.8s15.2,8,21.2,8
							s45.5,0.5,53.1-1.6S703,598.4,703,598.4z"/>
						<path class="st8" d="M654.7,641.5c-6,0-16.8,0.4-20.2-3.6c-6.6-8-4.6-22.1-3.2-27.5c1.2-4.6,9.3-28.6,24.3-33.1
							C655.7,577.2,637.3,610.7,654.7,641.5"/>
					</g>
					<path class="st14" d="M706.7,595.3h4.1c3.5,0,6.3,2.8,6.3,6.3v33.4c0,3.5-2.8,6.3-6.3,6.3h-4.1c-3.5,0-6.3-2.8-6.3-6.3v-33.4
						C700.3,598.2,703.2,595.3,706.7,595.3z"/>
					<path class="st15" d="M698.5,602.4h20.2c3.3,0,5.9,2.7,5.9,5.9v20.2c0,3.3-2.7,5.9-5.9,5.9h-20.2c-3.3,0-5.9-2.7-5.9-5.9v-20.2
						C692.6,605.1,695.3,602.4,698.5,602.4z"/>
					<path class="st16" d="M692.6,628.5v-20.2c0-3.3,2.6-5.9,5.9-5.9h20.2L692.6,628.5z"/>
				</g>
				<g id="HEAD">
					<path id="NECK" class="st7" d="M824.7,138.4c0,0-14,27.6,0,53.2c4.6,8.5-105.6,3.6-105.6,3.6l14.1-56.8H824.7z"/>
					<path id="HEAD-2" class="st7" d="M723.5,53.2c-1.7,14.6-2.8,48.8-19.2,85.8s48.9,36.1,65.8,31.4c17.2-4.8,27.9-18.3,27.9-18.3
						s34.2-9,34.2-23c0-10.8-17.4-5.6-17.4-5.6s9.6-72.6-7.7-76.4S725.4,36.4,723.5,53.2z"/>
					<g id="HAIR">
						<path class="st17" d="M813.8,125.3c-6,2.8-20.8-13.3-13.1-31c9.1-21.1,11.9-39.1-4.3-42.7s-32,15.5-65.3,6.1
							s-28.2-51.1,0.4-54.4s32.4,18.3,37,18.7s36.2-13.6,53.8,4.7c14.6,15.2,9.4,24.5,13.4,25.4s17.7,6.5,16.8,21.1
							s-24.1,50.2-24.1,50.2S822.9,121.1,813.8,125.3z"/>
						<path class="st18" d="M786.9,49.8C770.2,53.1,754,70,720.7,60.6s-28.2-55.8,0.4-59.1"/>
						<path class="st19" d="M830.1,52.1c3.7-1.8,17.9-5.9,26.2,6"/>
						<path class="st17" d="M820.2,116.1c-5.4,5.6-18,25.5-20.4,46.8s-16.4,38.2-52,36.8s-55.4-11.3-57.3-23s15.5-42.3,15.5-42.3
							s13.2-22.3,32.4-18s23,35.9,35.2,35.8c22.8-0.3,33.6-42.8,33.6-42.8L820.2,116.1z"/>
					</g>
					<g id="HEADPHONES">
						<path class="st20" d="M826.6,125V19.3c0-6.5-5.3-11.8-11.8-11.8l0,0h-33.4c-6.5,0-11.8,5.3-11.8,11.7c0,0,0,0,0,0"/>
						<path class="st20" d="M825.2,136.1v15c0,8.6-6.9,15.5-15.5,15.5h-75.1"/>
						
							<ellipse transform="matrix(0.1821 -0.9833 0.9833 0.1821 543.8932 920.3268)" class="st21" cx="825.1" cy="133.2" rx="18.1" ry="15.2"/>
						
							<ellipse transform="matrix(0.1821 -0.9833 0.9833 0.1821 437.5755 858.9905)" class="st11" cx="735.1" cy="166.5" rx="6.9" ry="8.2"/>
					</g>
				</g>
			</g>
			<g id="COMPUTER">
				<path class="st2" d="M568.3,528.5H72.1C66,528.5,61,523,61,516.2L3,201.9c0-6.8,5-12.3,11.1-12.3h496.2
					c6.2,0,11.1,5.5,11.1,12.3l58,314.3C579.4,523,574.4,528.5,568.3,528.5z"/>
				<path class="st2" d="M556.2,528.5H71.4c-5.9,0-10.7-5.3-10.7-11.8L4.9,214.5c0-6.5,4.8-11.8,10.7-11.8h484.8
					c5.9,0,10.7,5.3,10.7,11.8l55.7,302.2C566.9,523.2,562.1,528.5,556.2,528.5z"/>
				<polygon class="st22" points="320.4,424.2 347.2,525.6 320.4,525.6 				"/>
				<polygon class="st23" points="471.2,626.9 471.2,638.9 297,596.6 122.8,638.9 122.8,626.9 278.8,576.3 278.8,427.1 317.5,427.1 
					317.5,577.1 				"/>
				<path class="st11" d="M120.9,639.9H717c10.5,0,19.1,8.6,19.1,19.1c0,0,0,0,0,0v5c0,10.5-8.5,19.1-19.1,19.1h0H121.2L120.9,639.9
					z"/>
				<path class="st1" d="M120.9,639.9H717c10.5,0,19.1,8.6,19.1,19.1c0,0,0,0,0,0v5c0,10.5-8.5,19.1-19.1,19.1h0H121.2L120.9,639.9z
					"/>
				<polygon class="st11" points="568.3,1352.9 568.3,683.8 609.9,683.8 609.9,1352.8 				"/>
				<polygon class="st22" points="568.3,697.1 568.3,683.8 609.9,683.8 609.9,730 				"/>
				<polygon class="st1" points="568.3,1352.9 568.3,683.8 609.9,683.8 609.9,1353.1 				"/>
			</g>
		</g>
	</g>
</g>
</svg>
